999
dxfrw 0.6.3
  0
SECTION
  2
HEADER
  9
$ACADVER
  1
AC1021
  9
$DWGCODEPAGE
  3
ANSI_1252
  9
$INSBASE
 10
0
 20
0
 30
0
  9
$EXTMIN
 10
-2.500000000000028
 20
0
 30
0
  9
$EXTMAX
 10
66.54306460419998
 20
67.51777155760001
 30
0
  9
$LIMMIN
 10
0
 20
0
  9
$LIMMAX
 10
12
 20
9
  9
$ORTHOMODE
 70
    0
  9
$REGENMODE
 70
    1
  9
$FILLMODE
 70
    1
  9
$QTEXTMODE
 70
    0
  9
$MIRRTEXT
 70
    0
  9
$LTSCALE
 40
1
  9
$ATTMODE
 70
    1
  9
$TEXTSIZE
 40
0.2
  9
$TRACEWID
 40
0.05
  9
$TEXTSTYLE
  7
Notes
  9
$CLAYER
  8
mounting_holes
  9
$CELTYPE
  6
ByLayer
  9
$CECOLOR
 62
  256
  9
$CELTSCALE
 40
1
  9
$DISPSILH
 70
    0
  9
$DIMSCALE
 40
1
  9
$DIMASZ
 40
3
  9
$DIMEXO
 40
1.5
  9
$DIMDLI
 40
6
  9
$DIMRND
 40
0
  9
$DIMDLE
 40
0
  9
$DIMEXE
 40
3
  9
$DIMTP
 40
0
  9
$DIMTM
 40
0
  9
$DIMTXT
 40
3
  9
$DIMCEN
 40
3
  9
$DIMTSZ
 40
0
  9
$DIMTOL
 70
    0
  9
$DIMLIM
 70
    0
  9
$DIMTIH
 70
    0
  9
$DIMTOH
 70
    0
  9
$DIMSE1
 70
    0
  9
$DIMSE2
 70
    0
  9
$DIMTAD
 70
    1
  9
$DIMZIN
 70
    3
  9
$DIMBLK
  1

  9
$DIMASO
 70
    1
  9
$DIMSHO
 70
    1
  9
$DIMPOST
  1

  9
$DIMAPOST
  1

  9
$DIMALT
 70
    0
  9
$DIMALTD
 70
    2
  9
$DIMALTF
 40
25.4
  9
$DIMLFAC
 40
1
  9
$DIMTOFL
 70
    0
  9
$DIMTVP
 40
0
  9
$DIMTIX
 70
    0
  9
$DIMSOXD
 70
    0
  9
$DIMSAH
 70
    0
  9
$DIMBLK1
  1

  9
$DIMBLK2
  1

  9
$DIMSTYLE
  2
Standard
  9
$DIMCLRD
 70
    0
  9
$DIMCLRE
 70
    0
  9
$DIMCLRT
 70
    0
  9
$DIMTFAC
 40
1
  9
$DIMGAP
 40
2
  9
$DIMJUST
 70
    0
  9
$DIMSD1
 70
    0
  9
$DIMSD2
 70
    0
  9
$DIMTOLJ
 70
    1
  9
$DIMTZIN
 70
    0
  9
$DIMALTZ
 70
    0
  9
$DIMALTTZ
 70
    0
  9
$DIMUPT
 70
    0
  9
$DIMDEC
 70
    2
  9
$DIMTDEC
 70
    2
  9
$DIMALTU
 70
    2
  9
$DIMALTTD
 70
    2
  9
$DIMTXSTY
  7
Standard
  9
$DIMAUNIT
 70
    0
  9
$DIMADEC
 70
    2
  9
$DIMALTRND
 40
0
  9
$DIMAZIN
 70
    2
  9
$DIMDSEP
 70
   46
  9
$DIMATFIT
 70
    3
  9
$DIMFRAC
 70
    1
  9
$DIMLDRBLK
  1

  9
$DIMLUNIT
 70
    2
  9
$DIMLWD
 70
   -2
  9
$DIMLWE
 70
   -2
  9
$DIMTMOVE
 70
    0
  9
$DIMFXL
 40
1
  9
$DIMFXLON
 70
    0
  9
$DIMJOGANG
 40
0.785398163397
  9
$DIMTFILL
 70
    0
  9
$DIMTFILLCLR
 70
    0
  9
$DIMARCSYM
 70
    0
  9
$DIMLTYPE
  6

  9
$DIMLTEX1
  6

  9
$DIMLTEX2
  6

  9
$LUNITS
 70
    2
  9
$LUPREC
 70
    4
  9
$SKETCHINC
 40
0.1
  9
$FILLETRAD
 40
0
  9
$AUNITS
 70
    4
  9
$AUPREC
 70
    5
  9
$MENU
  1
.
  9
$ELEVATION
 40
0
  9
$PELEVATION
 40
0
  9
$THICKNESS
 40
0
  9
$LIMCHECK
 70
    0
  9
$CHAMFERA
 40
0
  9
$CHAMFERB
 40
0
  9
$CHAMFERC
 40
0
  9
$CHAMFERD
 40
0
  9
$SKPOLY
 70
    0
  9
$USRTIMER
 70
    1
  9
$ANGBASE
 50
0
  9
$ANGDIR
 70
    0
  9
$PDMODE
 70
    0
  9
$PDSIZE
 40
0
  9
$PLINEWID
 40
0
  9
$SPLFRAME
 70
    0
  9
$SPLINETYPE
 70
    6
  9
$SPLINESEGS
 70
    8
  9
$HANDSEED
  5
20000
  9
$SURFTAB1
 70
    6
  9
$SURFTAB2
 70
    6
  9
$SURFTYPE
 70
    6
  9
$SURFU
 70
    6
  9
$SURFV
 70
    6
  9
$UCSBASE
  2

  9
$UCSNAME
  2

  9
$UCSORG
 10
0
 20
0
 30
0
  9
$UCSXDIR
 10
1
 20
0
 30
0
  9
$UCSYDIR
 10
0
 20
1
 30
0
  9
$UCSORTHOREF
  2

  9
$UCSORTHOVIEW
 70
    0
  9
$UCSORGTOP
 10
0
 20
0
 30
0
  9
$UCSORGBOTTOM
 10
0
 20
0
 30
0
  9
$UCSORGLEFT
 10
0
 20
0
 30
0
  9
$UCSORGRIGHT
 10
0
 20
0
 30
0
  9
$UCSORGFRONT
 10
0
 20
0
 30
0
  9
$UCSORGBACK
 10
0
 20
0
 30
0
  9
$PUCSBASE
  2

  9
$PUCSNAME
  2

  9
$PUCSORG
 10
0
 20
0
 30
0
  9
$PUCSXDIR
 10
1
 20
0
 30
0
  9
$PUCSYDIR
 10
0
 20
1
 30
0
  9
$PUCSORTHOREF
  2

  9
$PUCSORTHOVIEW
 70
    0
  9
$PUCSORGTOP
 10
0
 20
0
 30
0
  9
$PUCSORGBOTTOM
 10
0
 20
0
 30
0
  9
$PUCSORGLEFT
 10
0
 20
0
 30
0
  9
$PUCSORGRIGHT
 10
0
 20
0
 30
0
  9
$PUCSORGFRONT
 10
0
 20
0
 30
0
  9
$PUCSORGBACK
 10
0
 20
0
 30
0
  9
$USERI1
 70
    0
  9
$USERI2
 70
    0
  9
$USERI3
 70
    0
  9
$USERI4
 70
    0
  9
$USERI5
 70
    0
  9
$USERR1
 40
0
  9
$USERR2
 40
0
  9
$USERR3
 40
0
  9
$USERR4
 40
0
  9
$USERR5
 40
0
  9
$WORLDVIEW
 70
    1
  9
$SHADEDGE
 70
    3
  9
$SHADEDIF
 70
   70
  9
$TILEMODE
 70
    1
  9
$MAXACTVP
 70
   64
  9
$PINSBASE
 10
0
 20
0
 30
0
  9
$PLIMCHECK
 70
    0
  9
$PEXTMIN
 10
28.94964904785155
 20
20.25015072822572
 30
0
  9
$PEXTMAX
 10
260.5468414306641
 20
182.2513565540313
 30
0
  9
$GRIDMODE
 70
    1
  9
$SNAPSTYLE
 70
    0
  9
$PLIMMIN
 10
-3.757080078125
 20
-3.757083415985107
  9
$PLIMMAX
 10
293.2535705566406
 20
206.2585873603821
  9
$UNITMODE
 70
    0
  9
$VISRETAIN
 70
    1
  9
$PLINEGEN
 70
    0
  9
$PSLTSCALE
 70
    1
  9
$TREEDEPTH
 70
 3020
  9
$CMLSTYLE
  2
Standard
  9
$CMLJUST
 70
    0
  9
$CMLSCALE
 40
1
  9
$PROXYGRAPHICS
 70
    1
  9
$MEASUREMENT
 70
    1
  9
$CELWEIGHT
370
   -1
  9
$ENDCAPS
280
    0
  9
$JOINSTYLE
280
    0
  9
$LWDISPLAY
290
    0
  9
$INSUNITS
 70
    4
  9
$HYPERLINKBASE
  1

  9
$STYLESHEET
  1

  9
$XEDIT
290
    1
  9
$CEPSNTYPE
380
    0
  9
$PSTYLEMODE
290
    1
  9
$EXTNAMES
290
    1
  9
$PSVPSCALE
 40
0
  9
$OLESTARTUP
290
    0
  9
$SORTENTS
280
  127
  9
$INDEXCTL
280
    0
  9
$HIDETEXT
280
    1
  9
$XCLIPFRAME
290
    0
  9
$HALOGAP
280
    0
  9
$OBSCOLOR
 70
  257
  9
$OBSLTYPE
280
    0
  9
$INTERSECTIONDISPLAY
280
    0
  9
$INTERSECTIONCOLOR
 70
  257
  9
$DIMASSOC
280
    2
  9
$PROJECTNAME
  1

  9
$CAMERADISPLAY
290
    0
  9
$LENSLENGTH
 40
50
  9
$CAMERAHEIGHT
 40
0
  9
$STEPSPERSEC
 40
2
  9
$STEPSIZE
 40
6
  9
$3DDWFPREC
 40
2
  9
$PSOLWIDTH
 40
0.25
  9
$PSOLHEIGHT
 40
4
  9
$LOFTANG1
 40
1.570796326789999
  9
$LOFTANG2
 40
1.570796326789999
  9
$LOFTMAG1
 40
0
  9
$LOFTMAG2
 40
0
  9
$LOFTPARAM
 70
    7
  9
$LOFTNORMALS
280
    1
  9
$LATITUDE
 40
37.795
  9
$LONGITUDE
 40
-122.394
  9
$NORTHDIRECTION
 40
0
  9
$TIMEZONE
 70
-8000
  9
$LIGHTGLYPHDISPLAY
280
    1
  9
$TILEMODELIGHTSYNCH
280
    1
  9
$SOLIDHIST
280
    1
  9
$SHOWHIST
280
    1
  9
$DWFFRAME
280
    2
  9
$DGNFRAME
280
    0
  9
$REALWORLDSCALE
290
    1
  9
$INTERFERECOLOR
 62
    1
  9
$CSHADOW
280
    0
  9
$SHADOWPLANELOCATION
 40
0
  0
ENDSEC
  0
SECTION
  2
CLASSES
  0
ENDSEC
  0
SECTION
  2
TABLES
  0
TABLE
  2
VPORT
  5
8
330
0
100
AcDbSymbolTable
 70
    1
  0
VPORT
  5
31
330
2
100
AcDbSymbolTableRecord
100
AcDbViewportTableRecord
  2
*ACTIVE
 70
    0
 10
0
 20
0
 11
1
 21
1
 12
52.53369888638284
 22
37.405323574165
 13
0
 23
0
 14
10
 24
10
 15
10
 25
10
 16
0
 26
0
 36
1
 17
0
 27
0
 37
0
 40
92.7652024639292
 41
1.707885304659498
 42
50
 43
0
 44
0
 50
0
 51
0
 71
    0
 72
  100
 73
    1
 74
    3
 75
    0
 76
    1
 77
    0
 78
    0
281
    0
 65
    1
110
0
120
0
130
0
111
1
121
0
131
0
112
0
122
1
132
0
 79
    0
146
0
348
10020
 60
    7
 61
    5
292
1
282
    1
141
0
142
0
 63
  250
421
3358443
  0
ENDTAB
  0
TABLE
  2
LTYPE
  5
5
330
0
100
AcDbSymbolTable
 70
    4
  0
LTYPE
  5
14
330
5
100
AcDbSymbolTableRecord
100
AcDbLinetypeTableRecord
  2
ByBlock
 70
    0
  3

 72
   65
 73
    0
 40
0
  0
LTYPE
  5
15
330
5
100
AcDbSymbolTableRecord
100
AcDbLinetypeTableRecord
  2
ByLayer
 70
    0
  3

 72
   65
 73
    0
 40
0
  0
LTYPE
  5
16
330
5
100
AcDbSymbolTableRecord
100
AcDbLinetypeTableRecord
  2
Continuous
 70
    0
  3
Solid line
 72
   65
 73
    0
 40
0
  0
LTYPE
  5
32
330
5
100
AcDbSymbolTableRecord
100
AcDbLinetypeTableRecord
  2
DOT
 70
    0
  3
Dot . . . . . . . . . . . . . . . . . . . . . .
 72
   65
 73
    2
 40
6.35
 49
0
 74
    0
 49
-6.35
 74
    0
  0
LTYPE
  5
33
330
5
100
AcDbSymbolTableRecord
100
AcDbLinetypeTableRecord
  2
DOTTINY
 70
    0
  3
Dot (.15x) .....................................
 72
   65
 73
    2
 40
0.9525
 49
0
 74
    0
 49
-0.9525
 74
    0
  0
LTYPE
  5
34
330
5
100
AcDbSymbolTableRecord
100
AcDbLinetypeTableRecord
  2
DOT2
 70
    0
  3
Dot (.5x) .....................................
 72
   65
 73
    2
 40
3.175
 49
0
 74
    0
 49
-3.175
 74
    0
  0
LTYPE
  5
35
330
5
100
AcDbSymbolTableRecord
100
AcDbLinetypeTableRecord
  2
DOTX2
 70
    0
  3
Dot (2x) .  .  .  .  .  .  .  .  .  .  .  .  .
 72
   65
 73
    2
 40
12.7
 49
0
 74
    0
 49
-12.7
 74
    0
  0
LTYPE
  5
36
330
5
100
AcDbSymbolTableRecord
100
AcDbLinetypeTableRecord
  2
DASHED
 70
    0
  3
Dashed _ _ _ _ _ _ _ _ _ _ _ _ _ _ _ _ _
 72
   65
 73
    2
 40
19.05
 49
12.7
 74
    0
 49
-6.35
 74
    0
  0
LTYPE
  5
37
330
5
100
AcDbSymbolTableRecord
100
AcDbLinetypeTableRecord
  2
DASHEDTINY
 70
    0
  3
Dashed (.15x) _ _ _ _ _ _ _ _ _ _ _ _ _ _ _ _ _
 72
   65
 73
    2
 40
2.8575
 49
1.905
 74
    0
 49
-0.9525
 74
    0
  0
LTYPE
  5
38
330
5
100
AcDbSymbolTableRecord
100
AcDbLinetypeTableRecord
  2
DASHED2
 70
    0
  3
Dashed (.5x) _ _ _ _ _ _ _ _ _ _ _ _ _ _ _ _ _
 72
   65
 73
    2
 40
9.524999999999999
 49
6.35
 74
    0
 49
-3.175
 74
    0
  0
LTYPE
  5
39
330
5
100
AcDbSymbolTableRecord
100
AcDbLinetypeTableRecord
  2
DASHEDX2
 70
    0
  3
Dashed (2x) ____  ____  ____  ____  ____  ___
 72
   65
 73
    2
 40
38.09999999999999
 49
25.4
 74
    0
 49
-12.7
 74
    0
  0
LTYPE
  5
3A
330
5
100
AcDbSymbolTableRecord
100
AcDbLinetypeTableRecord
  2
DASHDOT
 70
    0
  3
Dash dot __ . __ . __ . __ . __ . __ . __ . __
 72
   65
 73
    4
 40
25.4
 49
12.7
 74
    0
 49
-6.35
 74
    0
 49
0
 74
    0
 49
-6.35
 74
    0
  0
LTYPE
  5
3B
330
5
100
AcDbSymbolTableRecord
100
AcDbLinetypeTableRecord
  2
DASHDOTTINY
 70
    0
  3
Dash dot (.15x) _._._._._._._._._._._._._._._.
 72
   65
 73
    4
 40
3.81
 49
1.905
 74
    0
 49
-0.9525
 74
    0
 49
0
 74
    0
 49
-0.9525
 74
    0
  0
LTYPE
  5
3C
330
5
100
AcDbSymbolTableRecord
100
AcDbLinetypeTableRecord
  2
DASHDOT2
 70
    0
  3
Dash dot (.5x) _._._._._._._._._._._._._._._.
 72
   65
 73
    4
 40
12.7
 49
6.35
 74
    0
 49
-3.175
 74
    0
 49
0
 74
    0
 49
-3.175
 74
    0
  0
LTYPE
  5
3D
330
5
100
AcDbSymbolTableRecord
100
AcDbLinetypeTableRecord
  2
DASHDOTX2
 70
    0
  3
Dash dot (2x) ____  .  ____  .  ____  .  ___
 72
   65
 73
    4
 40
50.8
 49
25.4
 74
    0
 49
-12.7
 74
    0
 49
0
 74
    0
 49
-12.7
 74
    0
  0
LTYPE
  5
3E
330
5
100
AcDbSymbolTableRecord
100
AcDbLinetypeTableRecord
  2
DIVIDE
 70
    0
  3
Divide ____ . . ____ . . ____ . . ____ . . ____
 72
   65
 73
    6
 40
31.75
 49
12.7
 74
    0
 49
-6.35
 74
    0
 49
0
 74
    0
 49
-6.35
 74
    0
 49
0
 74
    0
 49
-6.35
 74
    0
  0
LTYPE
  5
3F
330
5
100
AcDbSymbolTableRecord
100
AcDbLinetypeTableRecord
  2
DIVIDETINY
 70
    0
  3
Divide (.15x) __..__..__..__..__..__..__..__.._
 72
   65
 73
    6
 40
4.7625
 49
1.905
 74
    0
 49
-0.9525
 74
    0
 49
0
 74
    0
 49
-0.9525
 74
    0
 49
0
 74
    0
 49
-0.9525
 74
    0
  0
LTYPE
  5
40
330
5
100
AcDbSymbolTableRecord
100
AcDbLinetypeTableRecord
  2
DIVIDE2
 70
    0
  3
Divide (.5x) __..__..__..__..__..__..__..__.._
 72
   65
 73
    6
 40
15.875
 49
6.35
 74
    0
 49
-3.175
 74
    0
 49
0
 74
    0
 49
-3.175
 74
    0
 49
0
 74
    0
 49
-3.175
 74
    0
  0
LTYPE
  5
41
330
5
100
AcDbSymbolTableRecord
100
AcDbLinetypeTableRecord
  2
DIVIDEX2
 70
    0
  3
Divide (2x) ________  .  .  ________  .  .  _
 72
   65
 73
    6
 40
63.5
 49
25.4
 74
    0
 49
-12.7
 74
    0
 49
0
 74
    0
 49
-12.7
 74
    0
 49
0
 74
    0
 49
-12.7
 74
    0
  0
LTYPE
  5
42
330
5
100
AcDbSymbolTableRecord
100
AcDbLinetypeTableRecord
  2
BORDER
 70
    0
  3
Border __ __ . __ __ . __ __ . __ __ . __ __ .
 72
   65
 73
    6
 40
44.45
 49
12.7
 74
    0
 49
-6.35
 74
    0
 49
12.7
 74
    0
 49
-6.35
 74
    0
 49
0
 74
    0
 49
-6.35
 74
    0
  0
LTYPE
  5
43
330
5
100
AcDbSymbolTableRecord
100
AcDbLinetypeTableRecord
  2
BORDERTINY
 70
    0
  3
Border (.15x) __.__.__.__.__.__.__.__.__.__.__.
 72
   65
 73
    6
 40
6.6675
 49
1.905
 74
    0
 49
-0.9525
 74
    0
 49
1.905
 74
    0
 49
-0.9525
 74
    0
 49
0
 74
    0
 49
-0.9525
 74
    0
  0
LTYPE
  5
44
330
5
100
AcDbSymbolTableRecord
100
AcDbLinetypeTableRecord
  2
BORDER2
 70
    0
  3
Border (.5x) __.__.__.__.__.__.__.__.__.__.__.
 72
   65
 73
    6
 40
22.225
 49
6.35
 74
    0
 49
-3.175
 74
    0
 49
6.35
 74
    0
 49
-3.175
 74
    0
 49
0
 74
    0
 49
-3.175
 74
    0
  0
LTYPE
  5
45
330
5
100
AcDbSymbolTableRecord
100
AcDbLinetypeTableRecord
  2
BORDERX2
 70
    0
  3
Border (2x) ____  ____  .  ____  ____  .  ___
 72
   65
 73
    6
 40
88.89999999999999
 49
25.4
 74
    0
 49
-12.7
 74
    0
 49
25.4
 74
    0
 49
-12.7
 74
    0
 49
0
 74
    0
 49
-12.7
 74
    0
  0
LTYPE
  5
46
330
5
100
AcDbSymbolTableRecord
100
AcDbLinetypeTableRecord
  2
CENTER
 70
    0
  3
Center ____ _ ____ _ ____ _ ____ _ ____ _ ____
 72
   65
 73
    4
 40
50.8
 49
31.75
 74
    0
 49
-6.35
 74
    0
 49
6.35
 74
    0
 49
-6.35
 74
    0
  0
LTYPE
  5
47
330
5
100
AcDbSymbolTableRecord
100
AcDbLinetypeTableRecord
  2
CENTERTINY
 70
    0
  3
Center (.15x) ___ _ ___ _ ___ _ ___ _ ___ _ ___
 72
   65
 73
    4
 40
7.619999999999999
 49
4.7625
 74
    0
 49
-0.9525
 74
    0
 49
0.9525
 74
    0
 49
-0.9525
 74
    0
  0
LTYPE
  5
48
330
5
100
AcDbSymbolTableRecord
100
AcDbLinetypeTableRecord
  2
CENTER2
 70
    0
  3
Center (.5x) ___ _ ___ _ ___ _ ___ _ ___ _ ___
 72
   65
 73
    4
 40
28.575
 49
19.05
 74
    0
 49
-3.175
 74
    0
 49
3.175
 74
    0
 49
-3.175
 74
    0
  0
LTYPE
  5
49
330
5
100
AcDbSymbolTableRecord
100
AcDbLinetypeTableRecord
  2
CENTERX2
 70
    0
  3
Center (2x) ________  __  ________  __  _____
 72
   65
 73
    4
 40
101.6
 49
63.5
 74
    0
 49
-12.7
 74
    0
 49
12.7
 74
    0
 49
-12.7
 74
    0
  0
ENDTAB
  0
TABLE
  2
LAYER
  5
2
330
0
100
AcDbSymbolTable
 70
    1
  0
LAYER
  5
10
330
2
100
AcDbSymbolTableRecord
100
AcDbLayerTableRecord
  2
0
 70
    0
 62
    7
  6
CONTINUOUS
370
   -3
390
F
  0
LAYER
  5
4A
330
2
100
AcDbSymbolTableRecord
100
AcDbLayerTableRecord
  2
capacitors
 70
    0
 62
    3
  6
CONTINUOUS
370
   50
390
F
  0
LAYER
  5
4B
330
2
100
AcDbSymbolTableRecord
100
AcDbLayerTableRecord
  2
connectors
 70
    0
 62
    8
  6
CONTINUOUS
370
   50
390
F
  0
LAYER
  5
4C
330
2
100
AcDbSymbolTableRecord
100
AcDbLayerTableRecord
  2
bridge
 70
    0
 62
    5
  6
CONTINUOUS
370
   50
390
F
  0
LAYER
  5
4D
330
2
100
AcDbSymbolTableRecord
100
AcDbLayerTableRecord
  2
leds
 70
    0
 62
    1
  6
CONTINUOUS
370
   50
390
F
  0
LAYER
  5
4E
330
2
100
AcDbSymbolTableRecord
100
AcDbLayerTableRecord
  2
mounting_holes
 70
    0
 62
    6
  6
CONTINUOUS
370
   50
390
F
  0
LAYER
  5
4F
330
2
100
AcDbSymbolTableRecord
100
AcDbLayerTableRecord
  2
outline
 70
    0
 62
  176
420
  128
  6
CONTINUOUS
370
   50
390
F
  0
ENDTAB
  0
TABLE
  2
STYLE
  5
3
330
0
100
AcDbSymbolTable
 70
    3
  0
STYLE
  5
50
330
2
100
AcDbSymbolTableRecord
100
AcDbTextStyleTableRecord
  2
Standard
 70
    0
 40
0
 41
1
 50
0
 71
    0
 42
1
  3
txt
  4

  0
ENDTAB
  0
TABLE
  2
VIEW
  5
6
330
0
100
AcDbSymbolTable
 70
    0
  0
ENDTAB
  0
TABLE
  2
UCS
  5
7
330
0
100
AcDbSymbolTable
 70
    0
  0
ENDTAB
  0
TABLE
  2
APPID
  5
9
330
0
100
AcDbSymbolTable
 70
    1
  0
APPID
  5
12
330
9
100
AcDbSymbolTableRecord
100
AcDbRegAppTableRecord
  2
ACAD
 70
    0
  0
APPID
  5
51
330
9
100
AcDbSymbolTableRecord
100
AcDbRegAppTableRecord
  2
LibreCad
 70
    0
  0
ENDTAB
  0
TABLE
  2
DIMSTYLE
  5
A
330
0
100
AcDbSymbolTable
 70
    1
100
AcDbDimStyleTable
 71
    1
  0
DIMSTYLE
105
52
330
A
100
AcDbSymbolTableRecord
100
AcDbDimStyleTableRecord
  2
Standard
 70
    0
 40
1
 41
3
 42
1.5
 43
0.38
 44
3
 45
0
 46
0
 47
0
 48
0
 49
1
140
3
141
0.09
142
0
143
25.4
144
1
145
0
146
1
147
2
148
0
 71
    0
 72
    0
 73
    0
 74
    1
 75
    0
 76
    0
 77
    0
 78
    3
 79
    2
170
    0
171
    2
172
    0
173
    0
174
    0
175
    0
176
    0
177
    0
178
    0
179
    2
271
    2
272
    4
273
    2
274
    2
275
    0
276
    0
277
    2
278
   46
279
    0
280
    0
281
    0
282
    0
283
    1
284
    0
285
    0
286
    0
288
    0
289
    3
340
Standard
341

371
   -2
372
   -2
  0
ENDTAB
  0
TABLE
  2
BLOCK_RECORD
  5
1
330
0
100
AcDbSymbolTable
 70
    2
  0
BLOCK_RECORD
  5
1F
330
1
100
AcDbSymbolTableRecord
100
AcDbBlockTableRecord
  2
*Model_Space
 70
    0
280
    1
281
    0
  0
BLOCK_RECORD
  5
1E
330
1
100
AcDbSymbolTableRecord
100
AcDbBlockTableRecord
  2
*Paper_Space
 70
    0
280
    1
281
    0
  0
BLOCK_RECORD
  5
53
330
1
100
AcDbSymbolTableRecord
100
AcDbBlockTableRecord
  2
_ArchTick
 70
    0
280
    1
281
    0
  0
BLOCK_RECORD
  5
56
330
1
100
AcDbSymbolTableRecord
100
AcDbBlockTableRecord
  2
_Open30
 70
    0
280
    1
281
    0
  0
BLOCK_RECORD
  5
59
330
1
100
AcDbSymbolTableRecord
100
AcDbBlockTableRecord
  2
*U4
 70
    0
280
    1
281
    0
  0
BLOCK_RECORD
  5
5C
330
1
100
AcDbSymbolTableRecord
100
AcDbBlockTableRecord
  2
*U5
 70
    0
280
    1
281
    0
  0
BLOCK_RECORD
  5
5F
330
1
100
AcDbSymbolTableRecord
100
AcDbBlockTableRecord
  2
*U7
 70
    0
280
    1
281
    0
  0
BLOCK_RECORD
  5
62
330
1
100
AcDbSymbolTableRecord
100
AcDbBlockTableRecord
  2
*U9
 70
    0
280
    1
281
    0
  0
ENDTAB
  0
ENDSEC
  0
SECTION
  2
BLOCKS
  0
BLOCK
  5
20
330
1F
100
AcDbEntity
  8
0
100
AcDbBlockBegin
  2
*Model_Space
 70
    0
 10
0
 20
0
 30
0
  3
*Model_Space
  1

  0
ENDBLK
  5
21
330
1F
100
AcDbEntity
  8
0
100
AcDbBlockEnd
  0
BLOCK
  5
1C
330
1B
100
AcDbEntity
  8
0
100
AcDbBlockBegin
  2
*Paper_Space
 70
    0
 10
0
 20
0
 30
0
  3
*Paper_Space
  1

  0
ENDBLK
  5
1D
330
1F
100
AcDbEntity
  8
0
100
AcDbBlockEnd
  0
BLOCK
  5
54
330
53
100
AcDbEntity
  8
0
100
AcDbBlockBegin
  2
_ArchTick
 70
    0
 10
0
 20
0
  3
_ArchTick
  1

  0
LWPOLYLINE
  5
65
100
AcDbEntity
  8
0
  6
ByBlock
 62
    0
370
   -1
100
AcDbPolyline
 90
    2
 70
    0
 43
0
 10
-0.5
 20
-0.5
 10
0.5
 20
0.5
  0
ENDBLK
  5
55
330
53
100
AcDbEntity
  8
0
100
AcDbBlockEnd
  0
BLOCK
  5
57
330
56
100
AcDbEntity
  8
0
100
AcDbBlockBegin
  2
_Open30
 70
    0
 10
0
 20
0
  3
_Open30
  1

  0
LINE
  5
66
100
AcDbEntity
  8
0
  6
ByBlock
 62
    0
370
   -2
100
AcDbLine
 10
-1
 20
0.26794919
 11
0
 21
0
  0
LINE
  5
67
100
AcDbEntity
  8
0
  6
ByBlock
 62
    0
370
   -2
100
AcDbLine
 10
0
 20
0
 11
-1
 21
-0.26794919
  0
LINE
  5
68
100
AcDbEntity
  8
0
  6
ByBlock
 62
    0
370
   -2
100
AcDbLine
 10
0
 20
0
 11
-1
 21
0
  0
ENDBLK
  5
58
330
56
100
AcDbEntity
  8
0
100
AcDbBlockEnd
  0
BLOCK
  5
5A
330
59
100
AcDbEntity
  8
0
100
AcDbBlockBegin
  2
*U4
 70
    0
 10
0
 20
0
  3
*U4
  1

  0
ENDBLK
  5
5B
330
59
100
AcDbEntity
  8
0
100
AcDbBlockEnd
  0
BLOCK
  5
5D
330
5C
100
AcDbEntity
  8
0
100
AcDbBlockBegin
  2
*U5
 70
    0
 10
0
 20
0
  3
*U5
  1

  0
INSERT
  5
69
100
AcDbEntity
  8
0
  6
ByBlock
 62
    0
370
   -2
100
AcDbBlockReference
  2
*U4
 10
0
 20
0
 30
0
 41
1
 42
1
 43
0
 50
46.5129105058526
 70
    1
 71
    1
 44
0
 45
0
  0
INSERT
  5
6A
100
AcDbEntity
  8
0
  6
ByBlock
 62
    0
370
   -2
100
AcDbBlockReference
  2
*U4
 10
16.01076615105
 20
16.8794428894
 30
0
 41
1
 42
1
 43
0
 50
46.5129105058526
 70
    1
 71
    1
 44
0
 45
0
  0
INSERT
  5
6B
100
AcDbEntity
  8
0
  6
ByBlock
 62
    0
370
   -2
100
AcDbBlockReference
  2
*U4
 10
32.0215323021
 20
33.7588857788
 30
0
 41
1
 42
1
 43
0
 50
46.5129105058526
 70
    1
 71
    1
 44
0
 45
0
  0
INSERT
  5
6C
100
AcDbEntity
  8
0
  6
ByBlock
 62
    0
370
   -2
100
AcDbBlockReference
  2
*U4
 10
48.03229845315
 20
50.6383286682
 30
0
 41
1
 42
1
 43
0
 50
46.5129105058526
 70
    1
 71
    1
 44
0
 45
0
  0
INSERT
  5
6D
100
AcDbEntity
  8
0
  6
ByBlock
 62
    0
370
   -2
100
AcDbBlockReference
  2
*U4
 10
64.04306460419998
 20
67.5177715576
 30
0
 41
1
 42
1
 43
0
 50
46.5129105058526
 70
    1
 71
    1
 44
0
 45
0
  0
ENDBLK
  5
5E
330
5C
100
AcDbEntity
  8
0
100
AcDbBlockEnd
  0
BLOCK
  5
60
330
5F
100
AcDbEntity
  8
0
100
AcDbBlockBegin
  2
*U7
 70
    0
 10
0
 20
0
  3
*U7
  1

  0
ENDBLK
  5
61
330
5F
100
AcDbEntity
  8
0
100
AcDbBlockEnd
  0
BLOCK
  5
63
330
62
100
AcDbEntity
  8
0
100
AcDbBlockBegin
  2
*U9
 70
    0
 10
0
 20
0
  3
*U9
  1

  0
INSERT
  5
6E
100
AcDbEntity
  8
0
  6
ByBlock
 62
    0
370
   -2
100
AcDbBlockReference
  2
*U7
 10
0
 20
0
 30
0
 41
1
 42
1
 43
0
 50
46.5129105058526
 70
    1
 71
    1
 44
0
 45
0
  0
INSERT
  5
6F
100
AcDbEntity
  8
0
  6
ByBlock
 62
    0
370
   -2
100
AcDbBlockReference
  2
*U7
 10
16.01076615105
 20
16.8794428894
 30
0
 41
1
 42
1
 43
0
 50
46.5129105058526
 70
    1
 71
    1
 44
0
 45
0
  0
INSERT
  5
70
100
AcDbEntity
  8
0
  6
ByBlock
 62
    0
370
   -2
100
AcDbBlockReference
  2
*U7
 10
32.0215323021
 20
33.7588857788
 30
0
 41
1
 42
1
 43
0
 50
46.5129105058526
 70
    1
 71
    1
 44
0
 45
0
  0
INSERT
  5
71
100
AcDbEntity
  8
0
  6
ByBlock
 62
    0
370
   -2
100
AcDbBlockReference
  2
*U7
 10
48.03229845315
 20
50.6383286682
 30
0
 41
1
 42
1
 43
0
 50
46.5129105058526
 70
    1
 71
    1
 44
0
 45
0
  0
INSERT
  5
72
100
AcDbEntity
  8
0
  6
ByBlock
 62
    0
370
   -2
100
AcDbBlockReference
  2
*U7
 10
64.04306460419998
 20
67.5177715576
 30
0
 41
1
 42
1
 43
0
 50
46.5129105058526
 70
    1
 71
    1
 44
0
 45
0
  0
ENDBLK
  5
64
330
62
100
AcDbEntity
  8
0
100
AcDbBlockEnd
  0
ENDSEC
  0
SECTION
  2
ENTITIES
  0
LWPOLYLINE
  5
73
100
AcDbEntity
  8
leds
  6
ByLayer
 62
  256
370
   -1
100
AcDbPolyline
 90
    4
 70
    1
 43
0
 10
28.596325355
 20
11.4710183533
 10
31.9936119049
 20
15.1395935669
 10
28.3250366913
 20
18.5368801168
 10
24.9277501414
 20
14.8683049031
  0
LWPOLYLINE
  5
74
100
AcDbEntity
  8
leds
  6
ByLayer
 62
  256
370
   -1
100
AcDbPolyline
 90
    4
 70
    1
 43
0
 10
42.75975537559999
 20
26.473004822
 10
46.2273668055
 20
30.0751806882
 10
42.6251909392
 20
33.5427921181
 10
39.1575795093
 20
29.9406162519
  0
LWPOLYLINE
  5
75
100
AcDbEntity
  8
leds
  6
ByLayer
 62
  256
370
   -1
100
AcDbPolyline
 90
    4
 70
    1
 43
0
 10
56.92317972359999
 20
41.47631396579999
 10
60.4597990309
 20
45.010762137
 10
56.9253508598
 20
48.5473814443
 10
53.38873155239999
 20
45.01293327319999
  0
LWPOLYLINE
  5
76
100
AcDbEntity
  8
leds
  6
ByLayer
 62
  256
370
   -1
100
AcDbPolyline
 90
    4
 70
    1
 43
0
 10
42.792946509
 20
11.4699269828
 10
46.2235921643
 20
15.107325832
 10
42.5861933151
 20
18.5379714872
 10
39.1555476598
 20
14.900572638
  0
LWPOLYLINE
  5
77
100
AcDbEntity
  8
leds
  6
ByLayer
 62
  256
370
   -1
100
AcDbPolyline
 90
    4
 70
    1
 43
0
 10
56.9556975919
 20
26.4725312939
 10
60.4567292225
 20
30.0422340157
 10
56.88702650069999
 20
33.5432656462
 10
53.3859948701
 20
29.9735629244
  0
LWPOLYLINE
  5
78
100
AcDbEntity
  8
leds
  6
ByLayer
 62
  256
370
   -1
100
AcDbPolyline
 90
    4
 70
    1
 43
0
 10
56.9889216315
 20
11.4691175573
 10
60.4532904786
 20
15.0744120656
 10
56.8479959704
 20
18.5387809127
 10
53.3836271233
 20
14.9334864045
  0
CIRCLE
  5
79
100
AcDbEntity
  8
mounting_holes
  6
ByLayer
 62
  256
370
   -1
100
AcDbCircle
 10
9.344719367209999
 20
3.64215788974
 40
1
  0
LWPOLYLINE
  5
7A
100
AcDbEntity
  8
capacitors
  6
ByLayer
 62
  256
370
   -1
100
AcDbPolyline
 90
    4
 70
    1
 43
0
 10
26.24609502685932
 20
19.2354511982435
 10
24.07183163492209
 20
16.88756306153817
 10
22.89788756656943
 20
17.97469475750677
 10
25.07215095850666
 20
20.32258289421211
  0
LWPOLYLINE
  5
7B
100
AcDbEntity
  8
connectors
  6
ByLayer
 62
  256
370
   -1
100
AcDbPolyline
 90
    4
 70
    1
 43
0
 10
22.0215323021
 20
2
 10
42.0215323021
 20
2
 10
42.0215323021
 20
7
 10
22.0215323021
 20
7
  0
LWPOLYLINE
  5
7C
100
AcDbEntity
  8
capacitors
  6
ByLayer
 62
  256
370
   -1
100
AcDbPolyline
 90
    4
 70
    1
 43
0
 10
40.51633389994682
 20
19.25827197686919
 10
38.32072068057196
 20
16.93033671339937
 10
37.15675304883705
 20
18.02814332308679
 10
39.35236626821192
 20
20.35607858655662
  0
LWPOLYLINE
  5
7D
100
AcDbEntity
  8
capacitors
  6
ByLayer
 62
  256
370
   -1
100
AcDbPolyline
 90
    4
 70
    1
 43
0
 10
54.78229177463941
 20
19.27557544008358
 10
52.56509571247828
 20
16.96818695481777
 10
51.4114014698454
 20
18.07678498589832
 10
53.62859753200652
 20
20.38417347116413
  0
LWPOLYLINE
  5
7E
100
AcDbEntity
  8
capacitors
  6
ByLayer
 62
  256
370
   -1
100
AcDbPolyline
 90
    4
 70
    1
 43
0
 10
40.56015053533672
 20
34.28144503415381
 10
38.34087922019215
 20
31.97605247977691
 10
37.1881829430037
 20
33.0856881373492
 10
39.40745425814828
 20
35.39108069172609
  0
LWPOLYLINE
  5
7F
100
AcDbEntity
  8
capacitors
  6
ByLayer
 62
  256
370
   -1
100
AcDbPolyline
 90
    4
 70
    1
 43
0
 10
54.82895971847499
 20
34.30113180849118
 10
52.58829947491287
 20
32.01652206656148
 10
51.44599460394802
 20
33.13685218834253
 10
53.68665484751016
 20
35.42146193027223
  0
LWPOLYLINE
  5
80
100
AcDbEntity
  8
capacitors
  6
ByLayer
 62
  256
370
   -1
100
AcDbPolyline
 90
    4
 70
    1
 43
0
 10
54.87498011602611
 20
49.32582849647899
 10
52.61154375927503
 20
47.0637816669599
 10
51.48052034451549
 20
48.19549984533542
 10
53.74395670126657
 20
50.45754667485453
  0
LINE
  5
81
100
AcDbEntity
  8
0
  6
CENTERTINY
 62
  256
370
   -1
100
AcDbLine
 10
0
 20
0
 11
64.04306460419998
 21
67.5177715576
  0
LWPOLYLINE
  5
82
100
AcDbEntity
  8
bridge
  6
ByLayer
 62
  256
370
   -1
100
AcDbPolyline
 90
    4
 70
    1
 43
0
 10
61.54306460420001
 20
55.53234340785678
 10
61.54306460419999
 20
40.53234340785679
 10
66.54306460419998
 20
40.53234340785677
 10
66.54306460419998
 20
55.53234340785678
  0
LWPOLYLINE
  5
83
100
AcDbEntity
  8
bridge
  6
ByLayer
 62
  256
370
   -1
100
AcDbPolyline
 90
    4
 70
    1
 43
0
 10
61.5411080219726
 20
25.53234340785679
 10
61.54110802197259
 20
10.53234340785679
 10
66.54110802197258
 20
10.53234340785678
 10
66.5411080219726
 20
25.53234340785678
  0
LWPOLYLINE
  5
84
100
AcDbEntity
  8
leds
  6
ByLayer
 62
  256
370
   -1
100
AcDbPolyline
 90
    4
 70
    1
 43
0
 10
35.44673924919996
 20
56.04675320430001
 10
32.04945269929998
 20
52.37817799070001
 10
35.71802791289997
 20
48.9808914408
 10
39.11531446279997
 20
52.64946665450001
  0
LWPOLYLINE
  5
85
100
AcDbEntity
  8
leds
  6
ByLayer
 62
  256
370
   -1
100
AcDbPolyline
 90
    4
 70
    1
 43
0
 10
21.28330922859997
 20
41.04476673560001
 10
17.81569779869997
 20
37.44259086940001
 10
21.41787366499997
 20
33.97497943950001
 10
24.88548509489998
 20
37.57715530570001
  0
LWPOLYLINE
  5
86
100
AcDbEntity
  8
leds
  6
ByLayer
 62
  256
370
   -1
100
AcDbPolyline
 90
    4
 70
    1
 43
0
 10
7.119884880599983
 20
26.04145759180001
 10
3.583265573299975
 20
22.50700942060001
 10
7.117713744399978
 20
18.9703901133
 10
10.65433305179998
 20
22.50483828440001
  0
LWPOLYLINE
  5
87
100
AcDbEntity
  8
leds
  6
ByLayer
 62
  256
370
   -1
100
AcDbPolyline
 90
    4
 70
    1
 43
0
 10
21.25011809519997
 20
56.0478445748
 10
17.81947243989996
 20
52.41044572560001
 10
21.45687128909997
 20
48.97980007040001
 10
24.88751694439997
 20
52.61719891960002
  0
LWPOLYLINE
  5
88
100
AcDbEntity
  8
leds
  6
ByLayer
 62
  256
370
   -1
100
AcDbPolyline
 90
    4
 70
    1
 43
0
 10
7.087367012299971
 20
41.0452402637
 10
3.586335381699974
 20
37.47553754190001
 10
7.15603810349998
 20
33.97450591140001
 10
10.65706973409997
 20
37.54420863320001
  0
LWPOLYLINE
  5
89
100
AcDbEntity
  8
leds
  6
ByLayer
 62
  256
370
   -1
100
AcDbPolyline
 90
    4
 70
    1
 43
0
 10
7.05414297269997
 20
56.0486540003
 10
3.589774125599973
 20
52.44335949200001
 10
7.195068633799969
 20
48.97899064490001
 10
10.65943748089996
 20
52.58428515310001
  0
CIRCLE
  5
8A
100
AcDbEntity
  8
mounting_holes
  6
ByLayer
 62
  256
370
   -1
100
AcDbCircle
 10
54.69834523698997
 20
63.87561366786002
 40
1
  0
LWPOLYLINE
  5
8B
100
AcDbEntity
  8
capacitors
  6
ByLayer
 62
  256
370
   -1
100
AcDbPolyline
 90
    4
 70
    1
 43
0
 10
37.79696957734066
 20
48.28232035935651
 10
39.97123296927788
 20
50.63020849606184
 10
41.14517703763054
 20
49.54307680009323
 10
38.97091364569332
 20
47.1951886633879
  0
LWPOLYLINE
  5
8C
100
AcDbEntity
  8
connectors
  6
ByLayer
 62
  256
370
   -1
100
AcDbPolyline
 90
    4
 70
    1
 43
0
 10
42.02153230209996
 20
65.51777155760001
 10
22.02153230209997
 20
65.51777155760001
 10
22.02153230209997
 20
60.51777155760001
 10
42.02153230209996
 20
60.51777155760001
  0
LWPOLYLINE
  5
8D
100
AcDbEntity
  8
capacitors
  6
ByLayer
 62
  256
370
   -1
100
AcDbPolyline
 90
    4
 70
    1
 43
0
 10
23.52673070425315
 20
48.25949958073081
 10
25.72234392362801
 20
50.58743484420064
 10
26.88631155536292
 20
49.48962823451322
 10
24.69069833598805
 20
47.16169297104339
  0
LWPOLYLINE
  5
8E
100
AcDbEntity
  8
capacitors
  6
ByLayer
 62
  256
370
   -1
100
AcDbPolyline
 90
    4
 70
    1
 43
0
 10
9.260772829560558
 20
48.24219611751643
 10
11.47796889172168
 20
50.54958460278223
 10
12.63166313435457
 20
49.44098657170169
 10
10.41446707219345
 20
47.13359808643587
  0
LWPOLYLINE
  5
8F
100
AcDbEntity
  8
capacitors
  6
ByLayer
 62
  256
370
   -1
100
AcDbPolyline
 90
    4
 70
    1
 43
0
 10
23.48291406886325
 20
33.2363265234462
 10
25.70218538400784
 20
35.5417190778231
 10
26.85488166119628
 20
34.43208342025081
 10
24.63561034605169
 20
32.12669086587392
  0
LWPOLYLINE
  5
90
100
AcDbEntity
  8
capacitors
  6
ByLayer
 62
  256
370
   -1
100
AcDbPolyline
 90
    4
 70
    1
 43
0
 10
9.214104885724986
 20
33.21663974910883
 10
11.4547651292871
 20
35.50124949103853
 10
12.59707000025195
 20
34.38091936925748
 10
10.35640975668982
 20
32.09630962732778
  0
LWPOLYLINE
  5
91
100
AcDbEntity
  8
capacitors
  6
ByLayer
 62
  256
370
   -1
100
AcDbPolyline
 90
    4
 70
    1
 43
0
 10
9.168084488173861
 20
18.19194306112101
 10
11.43152084492494
 20
20.45398989064011
 10
12.56254425968448
 20
19.32227171226458
 10
10.2991079029334
 20
17.06022488274548
  0
LWPOLYLINE
  5
92
100
AcDbEntity
  8
bridge
  6
ByLayer
 62
  256
370
   -1
100
AcDbPolyline
 90
    4
 70
    1
 43
0
 10
2.499999999999964
 20
11.98542814974322
 10
2.499999999999978
 20
26.98542814974322
 10
-2.500000000000028
 20
26.98542814974323
 10
-2.500000000000028
 20
11.98542814974322
  0
LWPOLYLINE
  5
93
100
AcDbEntity
  8
bridge
  6
ByLayer
 62
  256
370
   -1
100
AcDbPolyline
 90
    4
 70
    1
 43
0
 10
2.501956582227364
 20
41.98542814974321
 10
2.501956582227379
 20
56.98542814974321
 10
-2.498043417772606
 20
56.98542814974323
 10
-2.498043417772635
 20
41.98542814974323
  0
LWPOLYLINE
  5
94
100
AcDbEntity
  8
outline
  6
ByLayer
 62
  256
370
   -1
100
AcDbPolyline
 90
   14
 70
    1
 43
0
 10
6.175050805512938
 20
7.236625425523563
 10
-1.42e-14
 20
0.7265423709432053
 10
-0.002252527022728719
 20
7.336371630894263
 42
0.9999999999999999
 10
-1.370323125804429e-14
 20
9.336368947363358
 10
-2.84e-14
 20
67.51777155760001
 10
63.35391271238571
 20
67.51777155760001
 10
57.1424843385797
 20
60.96933724108345
 42
0.9999999999999999
 10
57.86801379868705
 20
60.28114613207643
 10
64.04306460419998
 20
66.79122918665678
 10
64.04569999999998
 20
60.18139999999999
 42
0.9999999999999926
 10
64.04306460419998
 20
58.18140347266155
 10
64.04306460419998
 20
0
 10
0.6891518918142987
 20
0
 10
6.900580265620317
 20
6.548434316516545
 42
1.000000000000001
  0
LWPOLYLINE
  5
95
100
AcDbEntity
  8
outline
  6
ByLayer
 62
  256
370
   -1
100
AcDbPolyline
 90
    4
 70
    1
 43
0
 10
22.91134641667031
 20
23.42787720591655
 42
0.9999999999999999
 10
22.18581695656294
 20
24.11606831492357
 10
9.110185885429692
 20
10.33100857288345
 42
1.000000000000001
 10
9.835715345537064
 20
9.642817463876439
  0
LWPOLYLINE
  5
96
100
AcDbEntity
  8
outline
  6
ByLayer
 62
  256
370
   -1
100
AcDbPolyline
 90
    4
 70
    1
 43
0
 10
38.92211256772032
 20
40.30732009531655
 42
0.999999999999995
 10
38.19658310761294
 20
40.99551120432356
 10
25.1209520364797
 20
27.21045146228345
 42
0.9999999999999972
 10
25.84648149658706
 20
26.52226035327644
  0
LWPOLYLINE
  5
97
100
AcDbEntity
  8
outline
  6
ByLayer
 62
  256
370
   -1
100
AcDbPolyline
 90
    4
 70
    1
 43
0
 10
54.93287871877032
 20
57.18676298471655
 42
1.000000000000005
 10
54.20734925866294
 20
57.87495409372357
 10
41.13171818752969
 20
44.08989435168345
 42
0.9999999999999952
 10
41.85724764763707
 20
43.40170324267644
  0
ENDSEC
  0
SECTION
  2
OBJECTS
  0
DICTIONARY
  5
C
330
0
100
AcDbDictionary
281
    1
  3
ACAD_GROUP
350
D
  0
DICTIONARY
  5
D
330
C
100
AcDbDictionary
281
    1
  0
ENDSEC
  0
EOF
