999
dxfrw 0.6.3
  0
SECTION
  2
HEADER
  9
$ACADVER
  1
AC1021
  9
$DWGCODEPAGE
  3
ANSI_1252
  9
$INSBASE
 10
0
 20
0
 30
0
  9
$EXTMIN
 10
-2.502483321921432
 20
0
 30
0
  9
$EXTMAX
 10
69.71599650482143
 20
125.890777047
 30
0
  9
$LIMMIN
 10
0
 20
0
  9
$LIMMAX
 10
12
 20
9
  9
$ORTHOMODE
 70
    0
  9
$REGENMODE
 70
    1
  9
$FILLMODE
 70
    1
  9
$QTEXTMODE
 70
    0
  9
$MIRRTEXT
 70
    0
  9
$LTSCALE
 40
1
  9
$ATTMODE
 70
    1
  9
$TEXTSIZE
 40
0.2
  9
$TRACEWID
 40
0.05
  9
$TEXTSTYLE
  7
Notes
  9
$CLAYER
  8
outline
  9
$CELTYPE
  6
ByLayer
  9
$CECOLOR
 62
  256
  9
$CELTSCALE
 40
1
  9
$DISPSILH
 70
    0
  9
$DIMSCALE
 40
1
  9
$DIMASZ
 40
3
  9
$DIMEXO
 40
1.5
  9
$DIMDLI
 40
6
  9
$DIMRND
 40
0
  9
$DIMDLE
 40
0
  9
$DIMEXE
 40
3
  9
$DIMTP
 40
0
  9
$DIMTM
 40
0
  9
$DIMTXT
 40
3
  9
$DIMCEN
 40
3
  9
$DIMTSZ
 40
0
  9
$DIMTOL
 70
    0
  9
$DIMLIM
 70
    0
  9
$DIMTIH
 70
    0
  9
$DIMTOH
 70
    0
  9
$DIMSE1
 70
    0
  9
$DIMSE2
 70
    0
  9
$DIMTAD
 70
    1
  9
$DIMZIN
 70
    3
  9
$DIMBLK
  1

  9
$DIMASO
 70
    1
  9
$DIMSHO
 70
    1
  9
$DIMPOST
  1

  9
$DIMAPOST
  1

  9
$DIMALT
 70
    0
  9
$DIMALTD
 70
    2
  9
$DIMALTF
 40
25.4
  9
$DIMLFAC
 40
1
  9
$DIMTOFL
 70
    0
  9
$DIMTVP
 40
0
  9
$DIMTIX
 70
    0
  9
$DIMSOXD
 70
    0
  9
$DIMSAH
 70
    0
  9
$DIMBLK1
  1

  9
$DIMBLK2
  1

  9
$DIMSTYLE
  2
Standard
  9
$DIMCLRD
 70
    0
  9
$DIMCLRE
 70
    0
  9
$DIMCLRT
 70
    0
  9
$DIMTFAC
 40
1
  9
$DIMGAP
 40
2
  9
$DIMJUST
 70
    0
  9
$DIMSD1
 70
    0
  9
$DIMSD2
 70
    0
  9
$DIMTOLJ
 70
    1
  9
$DIMTZIN
 70
    0
  9
$DIMALTZ
 70
    0
  9
$DIMALTTZ
 70
    0
  9
$DIMUPT
 70
    0
  9
$DIMDEC
 70
    2
  9
$DIMTDEC
 70
    2
  9
$DIMALTU
 70
    2
  9
$DIMALTTD
 70
    2
  9
$DIMTXSTY
  7
Standard
  9
$DIMAUNIT
 70
    0
  9
$DIMADEC
 70
    2
  9
$DIMALTRND
 40
0
  9
$DIMAZIN
 70
    2
  9
$DIMDSEP
 70
   46
  9
$DIMATFIT
 70
    3
  9
$DIMFRAC
 70
    1
  9
$DIMLDRBLK
  1

  9
$DIMLUNIT
 70
    2
  9
$DIMLWD
 70
   -2
  9
$DIMLWE
 70
   -2
  9
$DIMTMOVE
 70
    0
  9
$DIMFXL
 40
1
  9
$DIMFXLON
 70
    0
  9
$DIMJOGANG
 40
0.785398163397
  9
$DIMTFILL
 70
    0
  9
$DIMTFILLCLR
 70
    0
  9
$DIMARCSYM
 70
    0
  9
$DIMLTYPE
  6

  9
$DIMLTEX1
  6

  9
$DIMLTEX2
  6

  9
$LUNITS
 70
    2
  9
$LUPREC
 70
    4
  9
$SKETCHINC
 40
0.1
  9
$FILLETRAD
 40
0
  9
$AUNITS
 70
    4
  9
$AUPREC
 70
    5
  9
$MENU
  1
.
  9
$ELEVATION
 40
0
  9
$PELEVATION
 40
0
  9
$THICKNESS
 40
0
  9
$LIMCHECK
 70
    0
  9
$CHAMFERA
 40
0
  9
$CHAMFERB
 40
0
  9
$CHAMFERC
 40
0
  9
$CHAMFERD
 40
0
  9
$SKPOLY
 70
    0
  9
$USRTIMER
 70
    1
  9
$ANGBASE
 50
0
  9
$ANGDIR
 70
    0
  9
$PDMODE
 70
    0
  9
$PDSIZE
 40
0
  9
$PLINEWID
 40
0
  9
$SPLFRAME
 70
    0
  9
$SPLINETYPE
 70
    6
  9
$SPLINESEGS
 70
    8
  9
$HANDSEED
  5
20000
  9
$SURFTAB1
 70
    6
  9
$SURFTAB2
 70
    6
  9
$SURFTYPE
 70
    6
  9
$SURFU
 70
    6
  9
$SURFV
 70
    6
  9
$UCSBASE
  2

  9
$UCSNAME
  2

  9
$UCSORG
 10
0
 20
0
 30
0
  9
$UCSXDIR
 10
1
 20
0
 30
0
  9
$UCSYDIR
 10
0
 20
1
 30
0
  9
$UCSORTHOREF
  2

  9
$UCSORTHOVIEW
 70
    0
  9
$UCSORGTOP
 10
0
 20
0
 30
0
  9
$UCSORGBOTTOM
 10
0
 20
0
 30
0
  9
$UCSORGLEFT
 10
0
 20
0
 30
0
  9
$UCSORGRIGHT
 10
0
 20
0
 30
0
  9
$UCSORGFRONT
 10
0
 20
0
 30
0
  9
$UCSORGBACK
 10
0
 20
0
 30
0
  9
$PUCSBASE
  2

  9
$PUCSNAME
  2

  9
$PUCSORG
 10
0
 20
0
 30
0
  9
$PUCSXDIR
 10
1
 20
0
 30
0
  9
$PUCSYDIR
 10
0
 20
1
 30
0
  9
$PUCSORTHOREF
  2

  9
$PUCSORTHOVIEW
 70
    0
  9
$PUCSORGTOP
 10
0
 20
0
 30
0
  9
$PUCSORGBOTTOM
 10
0
 20
0
 30
0
  9
$PUCSORGLEFT
 10
0
 20
0
 30
0
  9
$PUCSORGRIGHT
 10
0
 20
0
 30
0
  9
$PUCSORGFRONT
 10
0
 20
0
 30
0
  9
$PUCSORGBACK
 10
0
 20
0
 30
0
  9
$USERI1
 70
    0
  9
$USERI2
 70
    0
  9
$USERI3
 70
    0
  9
$USERI4
 70
    0
  9
$USERI5
 70
    0
  9
$USERR1
 40
0
  9
$USERR2
 40
0
  9
$USERR3
 40
0
  9
$USERR4
 40
0
  9
$USERR5
 40
0
  9
$WORLDVIEW
 70
    1
  9
$SHADEDGE
 70
    3
  9
$SHADEDIF
 70
   70
  9
$TILEMODE
 70
    1
  9
$MAXACTVP
 70
   64
  9
$PINSBASE
 10
0
 20
0
 30
0
  9
$PLIMCHECK
 70
    0
  9
$PEXTMIN
 10
28.94964904785155
 20
20.25015072822572
 30
0
  9
$PEXTMAX
 10
260.5468414306641
 20
182.2513565540313
 30
0
  9
$GRIDMODE
 70
    1
  9
$SNAPSTYLE
 70
    0
  9
$PLIMMIN
 10
-3.757080078125
 20
-3.757083415985107
  9
$PLIMMAX
 10
293.2535705566406
 20
206.2585873603821
  9
$UNITMODE
 70
    0
  9
$VISRETAIN
 70
    1
  9
$PLINEGEN
 70
    0
  9
$PSLTSCALE
 70
    1
  9
$TREEDEPTH
 70
 3020
  9
$CMLSTYLE
  2
Standard
  9
$CMLJUST
 70
    0
  9
$CMLSCALE
 40
1
  9
$PROXYGRAPHICS
 70
    1
  9
$MEASUREMENT
 70
    1
  9
$CELWEIGHT
370
   -1
  9
$ENDCAPS
280
    0
  9
$JOINSTYLE
280
    0
  9
$LWDISPLAY
290
    0
  9
$INSUNITS
 70
    4
  9
$HYPERLINKBASE
  1

  9
$STYLESHEET
  1

  9
$XEDIT
290
    1
  9
$CEPSNTYPE
380
    0
  9
$PSTYLEMODE
290
    1
  9
$EXTNAMES
290
    1
  9
$PSVPSCALE
 40
0
  9
$OLESTARTUP
290
    0
  9
$SORTENTS
280
  127
  9
$INDEXCTL
280
    0
  9
$HIDETEXT
280
    1
  9
$XCLIPFRAME
290
    0
  9
$HALOGAP
280
    0
  9
$OBSCOLOR
 70
  257
  9
$OBSLTYPE
280
    0
  9
$INTERSECTIONDISPLAY
280
    0
  9
$INTERSECTIONCOLOR
 70
  257
  9
$DIMASSOC
280
    2
  9
$PROJECTNAME
  1

  9
$CAMERADISPLAY
290
    0
  9
$LENSLENGTH
 40
50
  9
$CAMERAHEIGHT
 40
0
  9
$STEPSPERSEC
 40
2
  9
$STEPSIZE
 40
6
  9
$3DDWFPREC
 40
2
  9
$PSOLWIDTH
 40
0.25
  9
$PSOLHEIGHT
 40
4
  9
$LOFTANG1
 40
1.570796326789999
  9
$LOFTANG2
 40
1.570796326789999
  9
$LOFTMAG1
 40
0
  9
$LOFTMAG2
 40
0
  9
$LOFTPARAM
 70
    7
  9
$LOFTNORMALS
280
    1
  9
$LATITUDE
 40
37.795
  9
$LONGITUDE
 40
-122.394
  9
$NORTHDIRECTION
 40
0
  9
$TIMEZONE
 70
-8000
  9
$LIGHTGLYPHDISPLAY
280
    1
  9
$TILEMODELIGHTSYNCH
280
    1
  9
$SOLIDHIST
280
    1
  9
$SHOWHIST
280
    1
  9
$DWFFRAME
280
    2
  9
$DGNFRAME
280
    0
  9
$REALWORLDSCALE
290
    1
  9
$INTERFERECOLOR
 62
    1
  9
$CSHADOW
280
    0
  9
$SHADOWPLANELOCATION
 40
0
  0
ENDSEC
  0
SECTION
  2
CLASSES
  0
ENDSEC
  0
SECTION
  2
TABLES
  0
TABLE
  2
VPORT
  5
8
330
0
100
AcDbSymbolTable
 70
    1
  0
VPORT
  5
31
330
2
100
AcDbSymbolTableRecord
100
AcDbViewportTableRecord
  2
*ACTIVE
 70
    0
 10
0
 20
0
 11
1
 21
1
 12
53.87768900591585
 22
58.59854353633685
 13
0
 23
0
 14
10
 24
10
 15
10
 25
10
 16
0
 26
0
 36
1
 17
0
 27
0
 37
0
 40
125.4398489511866
 41
1.462365591397849
 42
50
 43
0
 44
0
 50
0
 51
0
 71
    0
 72
  100
 73
    1
 74
    3
 75
    0
 76
    1
 77
    0
 78
    0
281
    0
 65
    1
110
0
120
0
130
0
111
1
121
0
131
0
112
0
122
1
132
0
 79
    0
146
0
348
10020
 60
    7
 61
    5
292
1
282
    1
141
0
142
0
 63
  250
421
3358443
  0
ENDTAB
  0
TABLE
  2
LTYPE
  5
5
330
0
100
AcDbSymbolTable
 70
    4
  0
LTYPE
  5
14
330
5
100
AcDbSymbolTableRecord
100
AcDbLinetypeTableRecord
  2
ByBlock
 70
    0
  3

 72
   65
 73
    0
 40
0
  0
LTYPE
  5
15
330
5
100
AcDbSymbolTableRecord
100
AcDbLinetypeTableRecord
  2
ByLayer
 70
    0
  3

 72
   65
 73
    0
 40
0
  0
LTYPE
  5
16
330
5
100
AcDbSymbolTableRecord
100
AcDbLinetypeTableRecord
  2
Continuous
 70
    0
  3
Solid line
 72
   65
 73
    0
 40
0
  0
LTYPE
  5
32
330
5
100
AcDbSymbolTableRecord
100
AcDbLinetypeTableRecord
  2
DOT
 70
    0
  3
Dot . . . . . . . . . . . . . . . . . . . . . .
 72
   65
 73
    2
 40
6.35
 49
0
 74
    0
 49
-6.35
 74
    0
  0
LTYPE
  5
33
330
5
100
AcDbSymbolTableRecord
100
AcDbLinetypeTableRecord
  2
DOTTINY
 70
    0
  3
Dot (.15x) .....................................
 72
   65
 73
    2
 40
0.9525
 49
0
 74
    0
 49
-0.9525
 74
    0
  0
LTYPE
  5
34
330
5
100
AcDbSymbolTableRecord
100
AcDbLinetypeTableRecord
  2
DOT2
 70
    0
  3
Dot (.5x) .....................................
 72
   65
 73
    2
 40
3.175
 49
0
 74
    0
 49
-3.175
 74
    0
  0
LTYPE
  5
35
330
5
100
AcDbSymbolTableRecord
100
AcDbLinetypeTableRecord
  2
DOTX2
 70
    0
  3
Dot (2x) .  .  .  .  .  .  .  .  .  .  .  .  .
 72
   65
 73
    2
 40
12.7
 49
0
 74
    0
 49
-12.7
 74
    0
  0
LTYPE
  5
36
330
5
100
AcDbSymbolTableRecord
100
AcDbLinetypeTableRecord
  2
DASHED
 70
    0
  3
Dashed _ _ _ _ _ _ _ _ _ _ _ _ _ _ _ _ _
 72
   65
 73
    2
 40
19.05
 49
12.7
 74
    0
 49
-6.35
 74
    0
  0
LTYPE
  5
37
330
5
100
AcDbSymbolTableRecord
100
AcDbLinetypeTableRecord
  2
DASHEDTINY
 70
    0
  3
Dashed (.15x) _ _ _ _ _ _ _ _ _ _ _ _ _ _ _ _ _
 72
   65
 73
    2
 40
2.8575
 49
1.905
 74
    0
 49
-0.9525
 74
    0
  0
LTYPE
  5
38
330
5
100
AcDbSymbolTableRecord
100
AcDbLinetypeTableRecord
  2
DASHED2
 70
    0
  3
Dashed (.5x) _ _ _ _ _ _ _ _ _ _ _ _ _ _ _ _ _
 72
   65
 73
    2
 40
9.524999999999999
 49
6.35
 74
    0
 49
-3.175
 74
    0
  0
LTYPE
  5
39
330
5
100
AcDbSymbolTableRecord
100
AcDbLinetypeTableRecord
  2
DASHEDX2
 70
    0
  3
Dashed (2x) ____  ____  ____  ____  ____  ___
 72
   65
 73
    2
 40
38.09999999999999
 49
25.4
 74
    0
 49
-12.7
 74
    0
  0
LTYPE
  5
3A
330
5
100
AcDbSymbolTableRecord
100
AcDbLinetypeTableRecord
  2
DASHDOT
 70
    0
  3
Dash dot __ . __ . __ . __ . __ . __ . __ . __
 72
   65
 73
    4
 40
25.4
 49
12.7
 74
    0
 49
-6.35
 74
    0
 49
0
 74
    0
 49
-6.35
 74
    0
  0
LTYPE
  5
3B
330
5
100
AcDbSymbolTableRecord
100
AcDbLinetypeTableRecord
  2
DASHDOTTINY
 70
    0
  3
Dash dot (.15x) _._._._._._._._._._._._._._._.
 72
   65
 73
    4
 40
3.81
 49
1.905
 74
    0
 49
-0.9525
 74
    0
 49
0
 74
    0
 49
-0.9525
 74
    0
  0
LTYPE
  5
3C
330
5
100
AcDbSymbolTableRecord
100
AcDbLinetypeTableRecord
  2
DASHDOT2
 70
    0
  3
Dash dot (.5x) _._._._._._._._._._._._._._._.
 72
   65
 73
    4
 40
12.7
 49
6.35
 74
    0
 49
-3.175
 74
    0
 49
0
 74
    0
 49
-3.175
 74
    0
  0
LTYPE
  5
3D
330
5
100
AcDbSymbolTableRecord
100
AcDbLinetypeTableRecord
  2
DASHDOTX2
 70
    0
  3
Dash dot (2x) ____  .  ____  .  ____  .  ___
 72
   65
 73
    4
 40
50.8
 49
25.4
 74
    0
 49
-12.7
 74
    0
 49
0
 74
    0
 49
-12.7
 74
    0
  0
LTYPE
  5
3E
330
5
100
AcDbSymbolTableRecord
100
AcDbLinetypeTableRecord
  2
DIVIDE
 70
    0
  3
Divide ____ . . ____ . . ____ . . ____ . . ____
 72
   65
 73
    6
 40
31.75
 49
12.7
 74
    0
 49
-6.35
 74
    0
 49
0
 74
    0
 49
-6.35
 74
    0
 49
0
 74
    0
 49
-6.35
 74
    0
  0
LTYPE
  5
3F
330
5
100
AcDbSymbolTableRecord
100
AcDbLinetypeTableRecord
  2
DIVIDETINY
 70
    0
  3
Divide (.15x) __..__..__..__..__..__..__..__.._
 72
   65
 73
    6
 40
4.7625
 49
1.905
 74
    0
 49
-0.9525
 74
    0
 49
0
 74
    0
 49
-0.9525
 74
    0
 49
0
 74
    0
 49
-0.9525
 74
    0
  0
LTYPE
  5
40
330
5
100
AcDbSymbolTableRecord
100
AcDbLinetypeTableRecord
  2
DIVIDE2
 70
    0
  3
Divide (.5x) __..__..__..__..__..__..__..__.._
 72
   65
 73
    6
 40
15.875
 49
6.35
 74
    0
 49
-3.175
 74
    0
 49
0
 74
    0
 49
-3.175
 74
    0
 49
0
 74
    0
 49
-3.175
 74
    0
  0
LTYPE
  5
41
330
5
100
AcDbSymbolTableRecord
100
AcDbLinetypeTableRecord
  2
DIVIDEX2
 70
    0
  3
Divide (2x) ________  .  .  ________  .  .  _
 72
   65
 73
    6
 40
63.5
 49
25.4
 74
    0
 49
-12.7
 74
    0
 49
0
 74
    0
 49
-12.7
 74
    0
 49
0
 74
    0
 49
-12.7
 74
    0
  0
LTYPE
  5
42
330
5
100
AcDbSymbolTableRecord
100
AcDbLinetypeTableRecord
  2
BORDER
 70
    0
  3
Border __ __ . __ __ . __ __ . __ __ . __ __ .
 72
   65
 73
    6
 40
44.45
 49
12.7
 74
    0
 49
-6.35
 74
    0
 49
12.7
 74
    0
 49
-6.35
 74
    0
 49
0
 74
    0
 49
-6.35
 74
    0
  0
LTYPE
  5
43
330
5
100
AcDbSymbolTableRecord
100
AcDbLinetypeTableRecord
  2
BORDERTINY
 70
    0
  3
Border (.15x) __.__.__.__.__.__.__.__.__.__.__.
 72
   65
 73
    6
 40
6.6675
 49
1.905
 74
    0
 49
-0.9525
 74
    0
 49
1.905
 74
    0
 49
-0.9525
 74
    0
 49
0
 74
    0
 49
-0.9525
 74
    0
  0
LTYPE
  5
44
330
5
100
AcDbSymbolTableRecord
100
AcDbLinetypeTableRecord
  2
BORDER2
 70
    0
  3
Border (.5x) __.__.__.__.__.__.__.__.__.__.__.
 72
   65
 73
    6
 40
22.225
 49
6.35
 74
    0
 49
-3.175
 74
    0
 49
6.35
 74
    0
 49
-3.175
 74
    0
 49
0
 74
    0
 49
-3.175
 74
    0
  0
LTYPE
  5
45
330
5
100
AcDbSymbolTableRecord
100
AcDbLinetypeTableRecord
  2
BORDERX2
 70
    0
  3
Border (2x) ____  ____  .  ____  ____  .  ___
 72
   65
 73
    6
 40
88.89999999999999
 49
25.4
 74
    0
 49
-12.7
 74
    0
 49
25.4
 74
    0
 49
-12.7
 74
    0
 49
0
 74
    0
 49
-12.7
 74
    0
  0
LTYPE
  5
46
330
5
100
AcDbSymbolTableRecord
100
AcDbLinetypeTableRecord
  2
CENTER
 70
    0
  3
Center ____ _ ____ _ ____ _ ____ _ ____ _ ____
 72
   65
 73
    4
 40
50.8
 49
31.75
 74
    0
 49
-6.35
 74
    0
 49
6.35
 74
    0
 49
-6.35
 74
    0
  0
LTYPE
  5
47
330
5
100
AcDbSymbolTableRecord
100
AcDbLinetypeTableRecord
  2
CENTERTINY
 70
    0
  3
Center (.15x) ___ _ ___ _ ___ _ ___ _ ___ _ ___
 72
   65
 73
    4
 40
7.619999999999999
 49
4.7625
 74
    0
 49
-0.9525
 74
    0
 49
0.9525
 74
    0
 49
-0.9525
 74
    0
  0
LTYPE
  5
48
330
5
100
AcDbSymbolTableRecord
100
AcDbLinetypeTableRecord
  2
CENTER2
 70
    0
  3
Center (.5x) ___ _ ___ _ ___ _ ___ _ ___ _ ___
 72
   65
 73
    4
 40
28.575
 49
19.05
 74
    0
 49
-3.175
 74
    0
 49
3.175
 74
    0
 49
-3.175
 74
    0
  0
LTYPE
  5
49
330
5
100
AcDbSymbolTableRecord
100
AcDbLinetypeTableRecord
  2
CENTERX2
 70
    0
  3
Center (2x) ________  __  ________  __  _____
 72
   65
 73
    4
 40
101.6
 49
63.5
 74
    0
 49
-12.7
 74
    0
 49
12.7
 74
    0
 49
-12.7
 74
    0
  0
ENDTAB
  0
TABLE
  2
LAYER
  5
2
330
0
100
AcDbSymbolTable
 70
    1
  0
LAYER
  5
10
330
2
100
AcDbSymbolTableRecord
100
AcDbLayerTableRecord
  2
0
 70
    0
 62
    7
  6
CONTINUOUS
370
   -3
390
F
  0
LAYER
  5
4A
330
2
100
AcDbSymbolTableRecord
100
AcDbLayerTableRecord
  2
Defpoints
 70
    0
 62
    7
  6
CONTINUOUS
290
0
370
   -3
390
F
  0
LAYER
  5
4B
330
2
100
AcDbSymbolTableRecord
100
AcDbLayerTableRecord
  2
View Port
 70
    0
 62
    7
  6
CONTINUOUS
290
0
370
   -3
390
F
  0
LAYER
  5
4C
330
2
100
AcDbSymbolTableRecord
100
AcDbLayerTableRecord
  2
outline
 70
    0
 62
    1
  6
CONTINUOUS
370
   50
390
F
  0
LAYER
  5
4D
330
2
100
AcDbSymbolTableRecord
100
AcDbLayerTableRecord
  2
bridge
 70
    0
 62
    5
  6
CONTINUOUS
370
   50
390
F
  0
LAYER
  5
4E
330
2
100
AcDbSymbolTableRecord
100
AcDbLayerTableRecord
  2
capacitors
 70
    0
 62
    3
  6
CONTINUOUS
370
   50
390
F
  0
LAYER
  5
4F
330
2
100
AcDbSymbolTableRecord
100
AcDbLayerTableRecord
  2
connectors
 70
    0
 62
    6
  6
CONTINUOUS
370
   50
390
F
  0
LAYER
  5
50
330
2
100
AcDbSymbolTableRecord
100
AcDbLayerTableRecord
  2
mounting_holes
 70
    0
 62
    4
  6
CONTINUOUS
370
   50
390
F
  0
LAYER
  5
51
330
2
100
AcDbSymbolTableRecord
100
AcDbLayerTableRecord
  2
leds
 70
    0
 62
    2
  6
CONTINUOUS
370
   50
390
F
1001
LibreCad
1070
    1
  0
ENDTAB
  0
TABLE
  2
STYLE
  5
3
330
0
100
AcDbSymbolTable
 70
    3
  0
STYLE
  5
52
330
2
100
AcDbSymbolTableRecord
100
AcDbTextStyleTableRecord
  2
Standard
 70
    0
 40
0
 41
1
 50
0
 71
    0
 42
1
  3
txt
  4

  0
ENDTAB
  0
TABLE
  2
VIEW
  5
6
330
0
100
AcDbSymbolTable
 70
    0
  0
ENDTAB
  0
TABLE
  2
UCS
  5
7
330
0
100
AcDbSymbolTable
 70
    0
  0
ENDTAB
  0
TABLE
  2
APPID
  5
9
330
0
100
AcDbSymbolTable
 70
    1
  0
APPID
  5
12
330
9
100
AcDbSymbolTableRecord
100
AcDbRegAppTableRecord
  2
ACAD
 70
    0
  0
APPID
  5
53
330
9
100
AcDbSymbolTableRecord
100
AcDbRegAppTableRecord
  2
LibreCad
 70
    0
  0
ENDTAB
  0
TABLE
  2
DIMSTYLE
  5
A
330
0
100
AcDbSymbolTable
 70
    1
100
AcDbDimStyleTable
 71
    1
  0
DIMSTYLE
105
54
330
A
100
AcDbSymbolTableRecord
100
AcDbDimStyleTableRecord
  2
Standard
 70
    0
 40
1
 41
3
 42
1.5
 43
0.38
 44
3
 45
0
 46
0
 47
0
 48
0
 49
1
140
3
141
0.09
142
0
143
25.4
144
1
145
0
146
1
147
2
148
0
 71
    0
 72
    0
 73
    0
 74
    1
 75
    0
 76
    0
 77
    0
 78
    3
 79
    2
170
    0
171
    2
172
    0
173
    0
174
    0
175
    0
176
    0
177
    0
178
    0
179
    2
271
    2
272
    4
273
    2
274
    2
275
    0
276
    0
277
    2
278
   46
279
    0
280
    0
281
    0
282
    0
283
    1
284
    0
285
    0
286
    0
288
    0
289
    3
340
Standard
341

371
   -2
372
   -2
  0
ENDTAB
  0
TABLE
  2
BLOCK_RECORD
  5
1
330
0
100
AcDbSymbolTable
 70
    2
  0
BLOCK_RECORD
  5
1F
330
1
100
AcDbSymbolTableRecord
100
AcDbBlockTableRecord
  2
*Model_Space
 70
    0
280
    1
281
    0
  0
BLOCK_RECORD
  5
1E
330
1
100
AcDbSymbolTableRecord
100
AcDbBlockTableRecord
  2
*Paper_Space
 70
    0
280
    1
281
    0
  0
BLOCK_RECORD
  5
55
330
1
100
AcDbSymbolTableRecord
100
AcDbBlockTableRecord
  2
_ArchTick
 70
    0
280
    1
281
    0
  0
BLOCK_RECORD
  5
58
330
1
100
AcDbSymbolTableRecord
100
AcDbBlockTableRecord
  2
_Open30
 70
    0
280
    1
281
    0
  0
ENDTAB
  0
ENDSEC
  0
SECTION
  2
BLOCKS
  0
BLOCK
  5
20
330
1F
100
AcDbEntity
  8
0
100
AcDbBlockBegin
  2
*Model_Space
 70
    0
 10
0
 20
0
 30
0
  3
*Model_Space
  1

  0
ENDBLK
  5
21
330
1F
100
AcDbEntity
  8
0
100
AcDbBlockEnd
  0
BLOCK
  5
1C
330
1B
100
AcDbEntity
  8
0
100
AcDbBlockBegin
  2
*Paper_Space
 70
    0
 10
0
 20
0
 30
0
  3
*Paper_Space
  1

  0
ENDBLK
  5
1D
330
1F
100
AcDbEntity
  8
0
100
AcDbBlockEnd
  0
BLOCK
  5
56
330
55
100
AcDbEntity
  8
0
100
AcDbBlockBegin
  2
_ArchTick
 70
    0
 10
0
 20
0
  3
_ArchTick
  1

  0
LWPOLYLINE
  5
5B
100
AcDbEntity
  8
0
  6
ByBlock
 62
    0
370
   -1
100
AcDbPolyline
 90
    2
 70
    0
 43
0
 10
-0.5
 20
-0.5
 10
0.5
 20
0.5
  0
ENDBLK
  5
57
330
55
100
AcDbEntity
  8
0
100
AcDbBlockEnd
  0
BLOCK
  5
59
330
58
100
AcDbEntity
  8
0
100
AcDbBlockBegin
  2
_Open30
 70
    0
 10
0
 20
0
  3
_Open30
  1

  0
LINE
  5
5C
100
AcDbEntity
  8
0
  6
ByBlock
 62
    0
370
   -2
100
AcDbLine
 10
-1
 20
0.26794919
 11
0
 21
0
  0
LINE
  5
5D
100
AcDbEntity
  8
0
  6
ByBlock
 62
    0
370
   -2
100
AcDbLine
 10
0
 20
0
 11
-1
 21
-0.26794919
  0
LINE
  5
5E
100
AcDbEntity
  8
0
  6
ByBlock
 62
    0
370
   -2
100
AcDbLine
 10
0
 20
0
 11
-1
 21
0
  0
ENDBLK
  5
5A
330
58
100
AcDbEntity
  8
0
100
AcDbBlockEnd
  0
ENDSEC
  0
SECTION
  2
ENTITIES
  0
CIRCLE
  5
5F
100
AcDbEntity
  8
mounting_holes
  6
ByLayer
 62
  256
370
   -1
100
AcDbCircle
 10
8.23206302623
 20
4.64889913139
 40
1
  0
LWPOLYLINE
  5
60
100
AcDbEntity
  8
leds
  6
ByLayer
 62
  256
370
   -1
100
AcDbPolyline
 90
    4
 70
    1
 43
0
 10
20.9773039891
 20
10.7508923249
 10
25.636251034
 20
12.565888863
 10
23.821254496
 20
17.2248359078
 10
19.1623074511
 20
15.4098393698
  0
LWPOLYLINE
  5
61
100
AcDbEntity
  8
leds
  6
ByLayer
 62
  256
370
   -1
100
AcDbPolyline
 90
    4
 70
    1
 43
0
 10
28.1610219169
 20
24.8792605421
 10
32.9639150647
 20
26.2693027757
 10
31.573872831
 20
31.0721959235
 10
26.7709796833
 20
29.6821536898
  0
LWPOLYLINE
  5
62
100
AcDbEntity
  8
leds
  6
ByLayer
 62
  256
370
   -1
100
AcDbPolyline
 90
    4
 70
    1
 43
0
 10
35.3995482218
 20
39.0052746729
 10
40.29393318159999
 20
40.0275250656
 10
39.271682789
 20
44.9219100254
 10
34.3772978292
 20
43.89965963279999
  0
LWPOLYLINE
  5
63
100
AcDbEntity
  8
leds
  6
ByLayer
 62
  256
370
   -1
100
AcDbPolyline
 90
    4
 70
    1
 43
0
 10
42.68192997869999
 20
53.12342940529999
 10
47.63181069709999
 20
53.8296028074
 10
46.925637295
 20
58.77948352579999
 10
41.97575657659999
 20
58.07331012369999
  0
LWPOLYLINE
  5
64
100
AcDbEntity
  8
leds
  6
ByLayer
 62
  256
370
   -1
100
AcDbPolyline
 90
    4
 70
    1
 43
0
 10
49.9988510158
 20
67.2313669322
 10
54.979905418
 20
67.66621982949999
 10
54.54505252069999
 20
72.6472742317
 10
49.5639981185
 20
72.21242133440002
  0
LWPOLYLINE
  5
65
100
AcDbEntity
  8
leds
  6
ByLayer
 62
  256
370
   -1
100
AcDbPolyline
 90
    4
 70
    1
 43
0
 10
57.3428505836
 20
81.3285119936
 10
62.3387926044
 20
81.52991538229999
 10
62.1373892157
 20
86.52585740310001
 10
57.1414471949
 20
86.3244540144
  0
LWPOLYLINE
  5
66
100
AcDbEntity
  8
leds
  6
ByLayer
 62
  256
370
   -1
100
AcDbPolyline
 90
    4
 70
    1
 43
0
 10
35.5391253432
 20
10.9396893081
 10
40.378565162
 20
12.1965991059
 10
39.1216553641
 20
17.0360389247
 10
34.28221554530001
 20
15.7791291269
  0
LWPOLYLINE
  5
67
100
AcDbEntity
  8
leds
  6
ByLayer
 62
  256
370
   -1
100
AcDbPolyline
 90
    4
 70
    1
 43
0
 10
42.7631448152
 20
25.0848648337
 10
47.6894218842
 20
25.9403145628
 10
46.833972155
 20
30.8665916319
 10
41.90769508599999
 20
30.0111419027
  0
LWPOLYLINE
  5
68
100
AcDbEntity
  8
leds
  6
ByLayer
 62
  256
370
   -1
100
AcDbPolyline
 90
    4
 70
    1
 43
0
 10
50.0398880046
 20
39.21746966500001
 10
55.01284930069999
 20
39.7367537373
 10
54.4935652284
 20
44.7097150333
 10
49.5206039323
 20
44.1904309611
  0
LWPOLYLINE
  5
69
100
AcDbEntity
  8
leds
  6
ByLayer
 62
  256
370
   -1
100
AcDbPolyline
 90
    4
 70
    1
 43
0
 10
57.3564109986
 20
53.3355789733
 10
62.3507722401
 20
53.5729727162
 10
62.1133784972
 20
58.5673339578
 10
57.11901725569999
 20
58.3299402149
  0
LWPOLYLINE
  5
6A
100
AcDbEntity
  8
leds
  6
ByLayer
 62
  256
370
   -1
100
AcDbPolyline
 90
    4
 70
    1
 43
0
 10
50.104298085
 20
11.1867083588
 10
55.0626572223
 20
11.8306607366
 10
54.41870484449999
 20
16.789019874
 10
49.46034570720001
 20
16.1450674962
  0
LWPOLYLINE
  5
6B
100
AcDbEntity
  8
leds
  6
ByLayer
 62
  256
370
   -1
100
AcDbPolyline
 90
    4
 70
    1
 43
0
 10
57.3783128654
 20
25.3354400809
 10
62.369957748
 20
25.624371502
 10
62.0810263269
 20
30.6160163846
 10
57.0893814444
 20
30.3270849635
  0
LWPOLYLINE
  5
6C
100
AcDbEntity
  8
capacitors
  6
ByLayer
 62
  256
370
   -1
100
AcDbPolyline
 90
    4
 70
    1
 43
0
 10
58.04071675864959
 20
88.36070662436624
 10
61.23811965195041
 20
88.48960479313379
 10
61.17367056756663
 20
90.08830623978417
 10
57.97626767426582
 20
89.95940807101663
  0
LWPOLYLINE
  5
6D
100
AcDbEntity
  8
capacitors
  6
ByLayer
 62
  256
370
   -1
100
AcDbPolyline
 90
    4
 70
    1
 43
0
 10
50.28664675197482
 20
74.28311661679524
 10
53.47452156938498
 20
74.56142247106743
 10
53.33536864224889
 20
76.15535987977249
 10
50.14749382483874
 20
75.87705402550033
  0
LWPOLYLINE
  5
6E
100
AcDbEntity
  8
capacitors
  6
ByLayer
 62
  256
370
   -1
100
AcDbPolyline
 90
    4
 70
    1
 43
0
 10
42.58426574508019
 20
60.18037362343022
 10
45.75218940484216
 20
60.63232460077221
 10
45.52621391617114
 20
62.21628643065319
 10
42.3582902564092
 20
61.76433545331119
  0
LWPOLYLINE
  5
6F
100
AcDbEntity
  8
capacitors
  6
ByLayer
 62
  256
370
   -1
100
AcDbPolyline
 90
    4
 70
    1
 43
0
 10
57.92304478200205
 20
60.37041558523101
 10
61.11943597657705
 20
60.52234758068773
 10
61.0434699788487
 20
62.12054317797521
 10
57.84707878427369
 20
61.9686111825185
  0
LWPOLYLINE
  5
70
100
AcDbEntity
  8
capacitors
  6
ByLayer
 62
  256
370
   -1
100
AcDbPolyline
 90
    4
 70
    1
 43
0
 10
50.20802333672339
 20
46.27308661253056
 10
53.39071856621789
 20
46.60542841873756
 10
53.22454766311438
 20
48.19677603348481
 10
50.04185243361988
 20
47.86443422727781
  0
LWPOLYLINE
  5
71
100
AcDbEntity
  8
capacitors
  6
ByLayer
 62
  256
370
   -1
100
AcDbPolyline
 90
    4
 70
    1
 43
0
 10
34.8493869649197
 20
46.04141868739168
 10
37.98179333919878
 20
46.69565893865717
 10
37.65467321356603
 20
48.2618621257967
 10
34.52226683928696
 20
47.60762187453122
  0
LWPOLYLINE
  5
72
100
AcDbEntity
  8
capacitors
  6
ByLayer
 62
  256
370
   -1
100
AcDbPolyline
 90
    4
 70
    1
 43
0
 10
27.07948355639315
 20
31.85351855095504
 10
30.15333517094
 20
32.7431455805285
 10
29.70852165615328
 20
34.28007138780193
 10
26.63467004160642
 20
33.39044435822847
  0
LWPOLYLINE
  5
73
100
AcDbEntity
  8
capacitors
  6
ByLayer
 62
  256
370
   -1
100
AcDbPolyline
 90
    4
 70
    1
 43
0
 10
42.45224506673011
 20
32.13563368156469
 10
45.60506239090628
 20
32.6831215082555
 10
45.33131847756087
 20
34.25953017034358
 10
42.1785011533847
 20
33.71204234365277
  0
LWPOLYLINE
  5
74
100
AcDbEntity
  8
capacitors
  6
ByLayer
 62
  256
370
   -1
100
AcDbPolyline
 90
    4
 70
    1
 43
0
 10
57.87230495477859
 20
32.37575057233275
 10
61.06695767963691
 20
32.56066668184013
 10
60.97449962488322
 20
34.15799304426928
 10
57.7798469000249
 20
33.97307693476189
  0
LWPOLYLINE
  5
75
100
AcDbEntity
  8
capacitors
  6
ByLayer
 62
  256
370
   -1
100
AcDbPolyline
 90
    4
 70
    1
 43
0
 10
50.09526940076896
 20
18.24432257914813
 10
53.26861924868407
 20
18.65645210094573
 10
53.06255448778528
 20
20.24312702490328
 10
49.88920463987016
 20
19.83099750310568
  0
LWPOLYLINE
  5
76
100
AcDbEntity
  8
capacitors
  6
ByLayer
 62
  256
370
   -1
100
AcDbPolyline
 90
    4
 70
    1
 43
0
 10
34.65055079354733
 20
17.9411488180365
 10
37.74779227760456
 20
18.74557108863506
 10
37.34558114230529
 20
20.29419183066367
 10
34.24833965824805
 20
19.48976956006511
  0
LWPOLYLINE
  5
77
100
AcDbEntity
  8
capacitors
  6
ByLayer
 62
  256
370
   -1
100
AcDbPolyline
 90
    4
 70
    1
 43
0
 10
19.27491930398797
 20
17.60011756459655
 10
22.25664541271596
 20
18.76171534891344
 10
21.67584652055753
 20
20.25257840327742
 10
18.69412041182954
 20
19.09098061896054
  0
LWPOLYLINE
  5
78
100
AcDbEntity
  8
connectors
  6
ByLayer
 62
  256
370
   -1
100
AcDbPolyline
 90
    4
 70
    1
 43
0
 10
23.60675659144998
 20
2.5
 10
43.60675659144997
 20
2.5
 10
43.60675659144997
 20
7.5
 10
23.60675659144998
 20
7.5
  0
CIRCLE
  5
79
100
AcDbEntity
  8
mounting_holes
  6
ByLayer
 62
  256
370
   -1
100
AcDbCircle
 10
58.98145015666998
 20
121.24187791561
 40
1
  0
LWPOLYLINE
  5
7A
100
AcDbEntity
  8
leds
  6
ByLayer
 62
  256
370
   -1
100
AcDbPolyline
 90
    4
 70
    1
 43
0
 10
46.23620919379998
 20
115.1398847221
 10
41.57726214889999
 20
113.324888184
 10
43.39225868689999
 20
108.6659411392
 10
48.05120573179999
 20
110.4809376772
  0
LWPOLYLINE
  5
7B
100
AcDbEntity
  8
leds
  6
ByLayer
 62
  256
370
   -1
100
AcDbPolyline
 90
    4
 70
    1
 43
0
 10
39.05249126599999
 20
101.0115165049
 10
34.24959811819999
 20
99.62147427130004
 10
35.63964035189999
 20
94.81858112350005
 10
40.44253349959999
 20
96.20862335720005
  0
LWPOLYLINE
  5
7C
100
AcDbEntity
  8
leds
  6
ByLayer
 62
  256
370
   -1
100
AcDbPolyline
 90
    4
 70
    1
 43
0
 10
31.8139649611
 20
86.88550237410003
 10
26.9195800013
 20
85.86325198140005
 10
27.94183039389999
 20
80.96886702160003
 10
32.83621535369999
 20
81.99111741420006
  0
LWPOLYLINE
  5
7D
100
AcDbEntity
  8
leds
  6
ByLayer
 62
  256
370
   -1
100
AcDbPolyline
 90
    4
 70
    1
 43
0
 10
24.5315832042
 20
72.76734764170006
 10
19.58170248579999
 20
72.06117423960005
 10
20.28787588789999
 20
67.11129352120005
 10
25.2377566063
 20
67.81746692330006
  0
LWPOLYLINE
  5
7E
100
AcDbEntity
  8
leds
  6
ByLayer
 62
  256
370
   -1
100
AcDbPolyline
 90
    4
 70
    1
 43
0
 10
17.21466216709999
 20
58.65941011480005
 10
12.23360776489999
 20
58.22455721750007
 10
12.6684606622
 20
53.24350281530006
 10
17.64951506439999
 20
53.67835571260004
  0
LWPOLYLINE
  5
7F
100
AcDbEntity
  8
leds
  6
ByLayer
 62
  256
370
   -1
100
AcDbPolyline
 90
    4
 70
    1
 43
0
 10
9.870662599299997
 20
44.56226505340005
 10
4.874720578499996
 20
44.36086166470005
 10
5.076123967199997
 20
39.36491964390003
 10
10.072065988
 20
39.56632303260006
  0
LWPOLYLINE
  5
80
100
AcDbEntity
  8
leds
  6
ByLayer
 62
  256
370
   -1
100
AcDbPolyline
 90
    4
 70
    1
 43
0
 10
31.67438783969999
 20
114.9510877389
 10
26.83494802089999
 20
113.6941779411
 10
28.09185781879999
 20
108.8547381223
 10
32.93129763759998
 20
110.1116479201
  0
LWPOLYLINE
  5
81
100
AcDbEntity
  8
leds
  6
ByLayer
 62
  256
370
   -1
100
AcDbPolyline
 90
    4
 70
    1
 43
0
 10
24.45036836769999
 20
100.8059122133
 10
19.52409129869998
 20
99.95046248420005
 10
20.3795410279
 20
95.02418541510005
 10
25.3058180969
 20
95.87963514430005
  0
LWPOLYLINE
  5
82
100
AcDbEntity
  8
leds
  6
ByLayer
 62
  256
370
   -1
100
AcDbPolyline
 90
    4
 70
    1
 43
0
 10
17.17362517829999
 20
86.67330738200005
 10
12.2006638822
 20
86.15402330970004
 10
12.71994795449999
 20
81.18106201370006
 10
17.69290925059999
 20
81.70034608590007
  0
LWPOLYLINE
  5
83
100
AcDbEntity
  8
leds
  6
ByLayer
 62
  256
370
   -1
100
AcDbPolyline
 90
    4
 70
    1
 43
0
 10
9.857102184299997
 20
72.55519807370004
 10
4.862740942799995
 20
72.31780433080004
 10
5.100134685699991
 20
67.32344308920005
 10
10.0944959272
 20
67.56083683210005
  0
LWPOLYLINE
  5
84
100
AcDbEntity
  8
leds
  6
ByLayer
 62
  256
370
   -1
100
AcDbPolyline
 90
    4
 70
    1
 43
0
 10
17.10921509789998
 20
114.7040686882
 10
12.15085596059999
 20
114.0601163104
 10
12.79480833839999
 20
109.101757173
 10
17.75316747569998
 20
109.7457095508
  0
LWPOLYLINE
  5
85
100
AcDbEntity
  8
leds
  6
ByLayer
 62
  256
370
   -1
100
AcDbPolyline
 90
    4
 70
    1
 43
0
 10
9.835200317499989
 20
100.5553369661
 10
4.843555434899982
 20
100.266405545
 10
5.132486855999999
 20
95.27476066240003
 10
10.12413173849999
 20
95.56369208350004
  0
LWPOLYLINE
  5
86
100
AcDbEntity
  8
capacitors
  6
ByLayer
 62
  256
370
   -1
100
AcDbPolyline
 90
    4
 70
    1
 43
0
 10
9.172796424250407
 20
37.53007042263381
 10
5.975393530949595
 20
37.40117225386625
 10
6.039842615333377
 20
35.80247080721586
 10
9.237245508634189
 20
35.93136897598343
  0
LWPOLYLINE
  5
87
100
AcDbEntity
  8
capacitors
  6
ByLayer
 62
  256
370
   -1
100
AcDbPolyline
 90
    4
 70
    1
 43
0
 10
16.92686643092517
 20
51.60766043020482
 10
13.73899161351501
 20
51.32935457593262
 10
13.8781445406511
 20
49.73541716722756
 10
17.06601935806125
 20
50.01372302149973
  0
LWPOLYLINE
  5
88
100
AcDbEntity
  8
capacitors
  6
ByLayer
 62
  256
370
   -1
100
AcDbPolyline
 90
    4
 70
    1
 43
0
 10
24.6292474378198
 20
65.71040342356983
 10
21.46132377805783
 20
65.25845244622784
 10
21.68729926672885
 20
63.67449061634686
 10
24.8552229264908
 20
64.12644159368887
  0
LWPOLYLINE
  5
89
100
AcDbEntity
  8
capacitors
  6
ByLayer
 62
  256
370
   -1
100
AcDbPolyline
 90
    4
 70
    1
 43
0
 10
9.290468400897943
 20
65.52036146176901
 10
6.094077206322943
 20
65.36842946631232
 10
6.170043204051296
 20
63.77023386902483
 10
9.366434398626296
 20
63.92216586448155
  0
LWPOLYLINE
  5
8A
100
AcDbEntity
  8
capacitors
  6
ByLayer
 62
  256
370
   -1
100
AcDbPolyline
 90
    4
 70
    1
 43
0
 10
17.00548984617661
 20
79.61769043446949
 10
13.8227946166821
 20
79.28534862826248
 10
13.98896551978561
 20
77.69400101351523
 10
17.17166074928012
 20
78.02634281972225
  0
LWPOLYLINE
  5
8B
100
AcDbEntity
  8
capacitors
  6
ByLayer
 62
  256
370
   -1
100
AcDbPolyline
 90
    4
 70
    1
 43
0
 10
32.3641262179803
 20
79.84935835960836
 10
29.23171984370122
 20
79.19511810834288
 10
29.55883996933397
 20
77.62891492120335
 10
32.69124634361304
 20
78.28315517246884
  0
LWPOLYLINE
  5
8C
100
AcDbEntity
  8
capacitors
  6
ByLayer
 62
  256
370
   -1
100
AcDbPolyline
 90
    4
 70
    1
 43
0
 10
40.13402962650684
 20
94.03725849604501
 10
37.06017801195999
 20
93.14763146647155
 10
37.50499152674671
 20
91.61070565919812
 10
40.57884314129357
 20
92.50033268877158
  0
LWPOLYLINE
  5
8D
100
AcDbEntity
  8
capacitors
  6
ByLayer
 62
  256
370
   -1
100
AcDbPolyline
 90
    4
 70
    1
 43
0
 10
24.76126811616988
 20
93.75514336543536
 10
21.60845079199371
 20
93.20765553874455
 10
21.88219470533912
 20
91.63124687665646
 10
25.03501202951529
 20
92.17873470334727
  0
LWPOLYLINE
  5
8E
100
AcDbEntity
  8
capacitors
  6
ByLayer
 62
  256
370
   -1
100
AcDbPolyline
 90
    4
 70
    1
 43
0
 10
9.341208228121403
 20
93.51502647466729
 10
6.146555503263087
 20
93.33011036515992
 10
6.239013558016772
 20
91.73278400273075
 10
9.433666282875095
 20
91.91770011223814
  0
LWPOLYLINE
  5
8F
100
AcDbEntity
  8
capacitors
  6
ByLayer
 62
  256
370
   -1
100
AcDbPolyline
 90
    4
 70
    1
 43
0
 10
17.11824378213102
 20
107.6464544678519
 10
13.94489393421591
 20
107.2343249460543
 10
14.15095869511471
 20
105.6476500220967
 10
17.32430854302983
 20
106.0597795438943
  0
LWPOLYLINE
  5
90
100
AcDbEntity
  8
capacitors
  6
ByLayer
 62
  256
370
   -1
100
AcDbPolyline
 90
    4
 70
    1
 43
0
 10
32.56296238935266
 20
107.9496282289635
 10
29.46572090529543
 20
107.145205958365
 10
29.8679320405947
 20
105.5965852163364
 10
32.96517352465194
 20
106.4010074869349
  0
LWPOLYLINE
  5
91
100
AcDbEntity
  8
capacitors
  6
ByLayer
 62
  256
370
   -1
100
AcDbPolyline
 90
    4
 70
    1
 43
0
 10
47.93859387891202
 20
108.2906594824035
 10
44.95686777018402
 20
107.1290616980866
 10
45.53766666234246
 20
105.6381986437226
 10
48.51939277107045
 20
106.7997964280395
  0
LWPOLYLINE
  5
92
100
AcDbEntity
  8
connectors
  6
ByLayer
 62
  256
370
   -1
100
AcDbPolyline
 90
    4
 70
    1
 43
0
 10
43.60675659145001
 20
123.390777047
 10
23.60675659145001
 20
123.390777047
 10
23.60675659145001
 20
118.390777047
 10
43.60675659145001
 20
118.390777047
  0
LINE
  5
93
100
AcDbEntity
  8
0
  6
BORDER
 62
  256
370
   -1
100
AcDbLine
 10
67.2135131829
 20
125.890777047
 11
0
 21
0
  0
LWPOLYLINE
  5
94
100
AcDbEntity
  8
outline
  6
ByLayer
 62
  256
370
   -1
100
AcDbPolyline
 90
   15
 70
    0
 43
0
 10
67.21139869346075
 20
114.5696930535254
 10
67.19
 20
0
 10
0.5668008544673162
 20
0
 10
4.929352540995773
 20
8.171050667003451
 42
0.9999999999999999
 10
4.047208493295154
 20
8.642030368377485
 10
0.0001983523166986
 20
1.061988391126734
 10
0.001740940910882972
 20
9.321086175198165
 42
0.9985358627471925
 10
0.002114489439249326
 20
11.32108399347464
 10
0.0235131828999897
 20
125.890777047
 10
66.64671232843263
 20
125.890777047
 10
62.31210735008856
 20
117.7720705090658
 42
1.000000000000012
 10
63.19425139778918
 20
117.3010908076917
 10
67.2133148305833
 20
124.8287886558734
 10
67.2117722419891
 20
116.5696908718019
 42
0.9993609866329725
 10
67.21305067679999
 20
114.569691689
 42
0.9993609866329725
  0
LWPOLYLINE
  5
95
100
AcDbEntity
  8
bridge
  6
ByLayer
 62
  256
370
   -1
100
AcDbPolyline
 90
    4
 70
    1
 43
0
 10
64.71599650482143
 20
109.569691689
 10
64.71599650482142
 20
94.569691689
 10
69.71599650482142
 20
94.56969168899998
 10
69.71599650482143
 20
109.569691689
  0
LWPOLYLINE
  5
96
100
AcDbEntity
  8
bridge
  6
ByLayer
 62
  256
370
   -1
100
AcDbPolyline
 90
    4
 70
    1
 43
0
 10
64.71599650482143
 20
79.569691689
 10
64.71599650482142
 20
64.569691689
 10
69.71599650482142
 20
64.56969168899998
 10
69.71599650482143
 20
79.56969168899998
  0
LWPOLYLINE
  5
97
100
AcDbEntity
  8
bridge
  6
ByLayer
 62
  256
370
   -1
100
AcDbPolyline
 90
    4
 70
    1
 43
0
 10
64.71599650482143
 20
49.56969168899999
 10
64.71599650482142
 20
34.569691689
 10
69.71599650482142
 20
34.56969168899998
 10
69.71599650482143
 20
49.56969168899998
  0
LWPOLYLINE
  5
98
100
AcDbEntity
  8
bridge
  6
ByLayer
 62
  256
370
   -1
100
AcDbPolyline
 90
    4
 70
    1
 43
0
 10
64.71599650482143
 20
19.56969168899999
 10
64.71599650482142
 20
4.569691688999995
 10
69.71599650482142
 20
4.569691688999981
 10
69.71599650482143
 20
19.56969168899998
  0
LWPOLYLINE
  5
99
100
AcDbEntity
  8
bridge
  6
ByLayer
 62
  256
370
   -1
100
AcDbPolyline
 90
    4
 70
    1
 43
0
 10
2.497516678078567
 20
16.32108535800005
 10
2.497516678078583
 20
31.32108535800005
 10
-2.502483321921416
 20
31.32108535800006
 10
-2.502483321921432
 20
16.32108535800006
  0
LWPOLYLINE
  5
9A
100
AcDbEntity
  8
bridge
  6
ByLayer
 62
  256
370
   -1
100
AcDbPolyline
 90
    4
 70
    1
 43
0
 10
2.497516678078572
 20
46.32108535800004
 10
2.497516678078588
 20
61.32108535800004
 10
-2.502483321921411
 20
61.32108535800006
 10
-2.502483321921427
 20
46.32108535800006
  0
LWPOLYLINE
  5
9B
100
AcDbEntity
  8
bridge
  6
ByLayer
 62
  256
370
   -1
100
AcDbPolyline
 90
    4
 70
    1
 43
0
 10
2.497516678078578
 20
76.32108535800003
 10
2.497516678078594
 20
91.32108535800005
 10
-2.502483321921405
 20
91.32108535800005
 10
-2.502483321921421
 20
76.32108535800006
  0
LWPOLYLINE
  5
9C
100
AcDbEntity
  8
bridge
  6
ByLayer
 62
  256
370
   -1
100
AcDbPolyline
 90
    4
 70
    1
 43
0
 10
2.497516678078584
 20
106.321085358
 10
2.4975166780786
 20
121.321085358
 10
-2.502483321921399
 20
121.321085358
 10
-2.502483321921415
 20
106.321085358
  0
LWPOLYLINE
  5
9D
100
AcDbEntity
  8
outline
  6
ByLayer
 62
  256
370
   -1
100
AcDbPolyline
 90
    4
 70
    1
 43
0
 10
16.13160473814577
 20
29.15284684150345
 42
0.9999999999999999
 10
15.24946069044515
 20
29.62382654287749
 10
6.300846364338561
 20
12.86308963656576
 42
0.9999999999999997
 10
7.182990412039176
 20
12.39210993519173
  0
LWPOLYLINE
  5
9E
100
AcDbEntity
  8
outline
  6
ByLayer
 62
  256
370
   -1
100
AcDbPolyline
 90
    4
 70
    1
 43
0
 10
27.33385693529577
 20
50.13464301600346
 42
1.000000000000002
 10
26.45171288759516
 20
50.60562271737749
 10
17.50309856148856
 20
33.84488581106577
 42
1
 10
18.38524260918918
 20
33.37390610969174
  0
LWPOLYLINE
  5
9F
100
AcDbEntity
  8
outline
  6
ByLayer
 62
  256
370
   -1
100
AcDbPolyline
 90
    4
 70
    1
 43
0
 10
38.53610913244578
 20
71.11643919050347
 42
0.9999999999999963
 10
37.65396508474515
 20
71.5874188918775
 10
28.70535075863856
 20
54.82668198556577
 42
1.000000000000008
 10
29.58749480633917
 20
54.35570228419174
  0
LWPOLYLINE
  5
A0
100
AcDbEntity
  8
outline
  6
ByLayer
 62
  256
370
   -1
100
AcDbPolyline
 90
    4
 70
    1
 43
0
 10
49.73836132959577
 20
92.09823536500348
 42
1.000000000000012
 10
48.85621728189516
 20
92.5692150663775
 10
39.90760295578856
 20
75.80847816006577
 42
1
 10
40.78974700348918
 20
75.33749845869174
  0
LWPOLYLINE
  5
A1
100
AcDbEntity
  8
outline
  6
ByLayer
 62
  256
370
   -1
100
AcDbPolyline
 90
    4
 70
    1
 43
0
 10
60.94061352674578
 20
113.0800315395035
 42
1.000000000000004
 10
60.05846947904515
 20
113.5510112408775
 10
51.10985515293856
 20
96.79027433456578
 42
1
 10
51.99199920063918
 20
96.31929463319175
  0
ENDSEC
  0
SECTION
  2
OBJECTS
  0
DICTIONARY
  5
C
330
0
100
AcDbDictionary
281
    1
  3
ACAD_GROUP
350
D
  0
DICTIONARY
  5
D
330
C
100
AcDbDictionary
281
    1
  0
ENDSEC
  0
EOF
